<svg width="259" height="39" viewBox="0 0 259 39" fill="none" xmlns="http://www.w3.org/2000/svg">
<g filter="url(#filter0_d_3_87)">
<path d="M12.5078 24.0527C12.0742 24.0527 11.7578 24 11.5586 23.8945C11.3594 23.7773 11.2598 23.6016 11.2598 23.3672V4.50586H5.24805C5.02539 4.50586 4.86719 4.42969 4.77344 4.27734C4.67969 4.125 4.63281 3.89062 4.63281 3.57422V3.06445C4.63281 2.73633 4.67969 2.50195 4.77344 2.36133C4.86719 2.20898 5.02539 2.13281 5.24805 2.13281H19.9082C20.1309 2.13281 20.2891 2.20898 20.3828 2.36133C20.4766 2.50195 20.5234 2.73633 20.5234 3.06445V3.57422C20.5234 3.89062 20.4766 4.125 20.3828 4.27734C20.2891 4.42969 20.1309 4.50586 19.9082 4.50586H14.0195V23.3672C14.0195 23.8242 13.5977 24.0527 12.7539 24.0527H12.5078ZM28.5918 24.1758C26.998 24.1758 25.75 23.7305 24.8477 22.8398C23.9453 21.9375 23.4941 20.6953 23.4941 19.1133V8.28516C23.4941 7.82812 23.916 7.59961 24.7598 7.59961H24.8828C25.7148 7.59961 26.1309 7.82812 26.1309 8.28516V18.8672C26.1309 19.8281 26.4062 20.5781 26.957 21.1172C27.5195 21.6445 28.3047 21.9082 29.3125 21.9082C30.0156 21.9082 30.7188 21.7148 31.4219 21.3281C32.125 20.9297 32.7344 20.3906 33.25 19.7109V8.28516C33.25 7.82812 33.666 7.59961 34.498 7.59961H34.6211C35.4648 7.59961 35.8867 7.82812 35.8867 8.28516V19.377C35.8867 20.7363 35.9453 21.7207 36.0625 22.3301C36.1797 22.9277 36.2383 23.2559 36.2383 23.3145C36.2383 23.5723 36.0449 23.7598 35.6582 23.877C35.2715 23.9824 34.9082 24.0352 34.5684 24.0352C34.2754 24.0352 34.0586 23.8711 33.918 23.543C33.7773 23.2031 33.6719 22.8574 33.6016 22.5059C33.543 22.1543 33.502 21.9316 33.4785 21.8379C32.8223 22.5762 32.0605 23.1504 31.1934 23.5605C30.3379 23.9707 29.4707 24.1758 28.5918 24.1758ZM46.1875 24.1758C45.0391 24.1758 43.9668 24.0527 42.9707 23.8066C41.9863 23.5488 41.1953 23.2441 40.5977 22.8926C40.0117 22.5293 39.7188 22.2012 39.7188 21.9082C39.7188 21.7441 39.7832 21.5273 39.9121 21.2578C40.0527 20.9883 40.2109 20.748 40.3867 20.5371C40.5625 20.3262 40.7031 20.2207 40.8086 20.2207C40.9023 20.2207 41.1074 20.3145 41.4238 20.502C42.1504 20.877 42.8711 21.1875 43.5859 21.4336C44.3008 21.6797 45.168 21.8027 46.1875 21.8027C46.9844 21.8027 47.6934 21.6504 48.3145 21.3457C48.9355 21.041 49.416 20.6133 49.7559 20.0625C50.1074 19.5 50.2832 18.8555 50.2832 18.1289C50.2832 17.3555 50.0723 16.7168 49.6504 16.2129C49.2402 15.6973 48.7363 15.293 48.1387 15C47.5527 14.6953 46.6973 14.3203 45.5723 13.875C44.3535 13.4062 43.3867 12.9727 42.6719 12.5742C41.9688 12.1641 41.3652 11.5723 40.8613 10.7988C40.3691 10.0254 40.123 9 40.123 7.72266C40.123 6.60938 40.4102 5.61328 40.9844 4.73438C41.5586 3.84375 42.373 3.15234 43.4277 2.66016C44.4824 2.16797 45.6953 1.92188 47.0664 1.92188C47.6875 1.92188 48.3965 2.00977 49.1934 2.18555C49.9902 2.34961 50.6699 2.57812 51.2324 2.87109C51.8066 3.16406 52.0938 3.48633 52.0938 3.83789C52.0938 3.99023 52.0293 4.20117 51.9004 4.4707C51.7832 4.72852 51.6426 4.96289 51.4785 5.17383C51.3145 5.38477 51.1855 5.49023 51.0918 5.49023C50.9863 5.49023 50.7754 5.40234 50.459 5.22656C49.9316 4.94531 49.4102 4.72266 48.8945 4.55859C48.3789 4.38281 47.752 4.29492 47.0137 4.29492C45.8066 4.29492 44.8281 4.60547 44.0781 5.22656C43.3398 5.84766 42.9707 6.71484 42.9707 7.82812C42.9707 8.49609 43.1348 9.04688 43.4629 9.48047C43.791 9.91406 44.207 10.2598 44.7109 10.5176C45.2148 10.7754 45.918 11.0742 46.8203 11.4141C46.8789 11.4258 47.0137 11.4727 47.2246 11.5547C48.4668 12.0352 49.4805 12.5039 50.2656 12.9609C51.0625 13.4062 51.7363 14.0508 52.2871 14.8945C52.8496 15.7383 53.1309 16.8164 53.1309 18.1289C53.1309 19.3594 52.8438 20.4316 52.2695 21.3457C51.707 22.2598 50.8984 22.9629 49.8438 23.4551C48.8008 23.9355 47.582 24.1758 46.1875 24.1758ZM63.5898 24.1758C61 24.1758 59.0723 23.502 57.8066 22.1543C56.5527 20.7949 55.9258 18.7207 55.9258 15.9316C55.9258 13.166 56.541 11.0684 57.7715 9.63867C59.002 8.19727 60.8125 7.47656 63.2031 7.47656C65.3359 7.47656 66.9414 8.16797 68.0195 9.55078C69.1094 10.9336 69.6543 12.9609 69.6543 15.6328C69.6543 15.75 69.5898 15.9141 69.4609 16.125C69.3438 16.3242 69.1973 16.5059 69.0215 16.6699C68.8574 16.8223 68.7168 16.8984 68.5996 16.8984H58.7383C58.8672 18.6445 59.3125 19.9219 60.0742 20.7305C60.8477 21.5273 62.0078 21.9258 63.5547 21.9258C64.4219 21.9258 65.166 21.8203 65.7871 21.6094C66.4199 21.3984 67.0293 21.1406 67.6152 20.8359C67.6738 20.8125 67.7617 20.7715 67.8789 20.7129C67.9961 20.6543 68.0781 20.625 68.125 20.625C68.2539 20.625 68.4004 20.7305 68.5645 20.9414C68.7402 21.1406 68.8867 21.3691 69.0039 21.627C69.1328 21.873 69.1973 22.0547 69.1973 22.1719C69.1973 22.4297 68.9395 22.7168 68.4238 23.0332C67.9082 23.3496 67.2168 23.6191 66.3496 23.8418C65.4941 24.0645 64.5742 24.1758 63.5898 24.1758ZM66.8594 14.6484C66.8594 11.3672 65.6113 9.72656 63.1152 9.72656C60.4316 9.72656 58.9727 11.3672 58.7383 14.6484H66.8594ZM78.9883 30.627C76.9961 30.627 75.4199 30.3164 74.2598 29.6953C73.0996 29.0742 72.5195 28.0957 72.5195 26.7598C72.5195 25.8457 72.7832 25.0488 73.3105 24.3691C73.8379 23.6895 74.5234 23.1797 75.3672 22.8398L75.4023 22.7695C74.9922 22.4531 74.6758 22.0898 74.4531 21.6797C74.2422 21.2695 74.1367 20.7832 74.1367 20.2207C74.1367 18.8613 74.7227 17.7715 75.8945 16.9512C75.0156 16.5293 74.3477 15.9375 73.8906 15.1758C73.4336 14.4023 73.2051 13.5352 73.2051 12.5742C73.2051 11.6133 73.4395 10.7461 73.9082 9.97266C74.3887 9.19922 75.0918 8.58984 76.0176 8.14453C76.9434 7.69922 78.0566 7.47656 79.3574 7.47656C80.0488 7.47656 80.6641 7.53516 81.2031 7.65234H86.8809C87.1035 7.65234 87.2617 7.72852 87.3555 7.88086C87.4609 8.02148 87.5137 8.25586 87.5137 8.58398V8.9707C87.5137 9.29883 87.4609 9.53906 87.3555 9.69141C87.2617 9.83203 87.1035 9.90234 86.8809 9.90234C86.0957 9.90234 85.3691 9.87305 84.7012 9.81445L84.666 9.86719C84.9355 10.2422 85.1348 10.6641 85.2637 11.1328C85.4043 11.5898 85.4746 12.0703 85.4746 12.5742C85.4746 13.5352 85.2344 14.4023 84.7539 15.1758C84.2852 15.9492 83.5879 16.5586 82.6621 17.0039C81.748 17.4492 80.6348 17.6719 79.3223 17.6719C78.3379 17.707 77.5938 17.8887 77.0898 18.2168C76.5977 18.5449 76.3516 19.084 76.3516 19.834C76.3516 20.3848 76.5273 20.8066 76.8789 21.0996C77.2422 21.3926 77.6934 21.5977 78.2324 21.7148C78.7715 21.832 79.5215 21.9434 80.4824 22.0488L81.3965 22.1543C82.3691 22.2832 83.1836 22.459 83.8398 22.6816C84.4961 22.9043 85.0352 23.2734 85.457 23.7891C85.8906 24.3047 86.1074 25.0137 86.1074 25.916C86.1074 27.4277 85.5039 28.5879 84.2969 29.3965C83.0898 30.2168 81.3203 30.627 78.9883 30.627ZM79.3223 15.5977C80.4707 15.5977 81.3848 15.3633 82.0645 14.8945C82.7441 14.4258 83.084 13.6582 83.084 12.5918C83.084 10.5762 81.8301 9.56836 79.3223 9.56836C76.8496 9.56836 75.6133 10.5762 75.6133 12.5918C75.6133 13.6582 75.9473 14.4258 76.6152 14.8945C77.2949 15.3633 78.1973 15.5977 79.3223 15.5977ZM79.3223 28.5C80.7754 28.5 81.8535 28.3066 82.5566 27.9199C83.2598 27.5449 83.6113 26.9707 83.6113 26.1973C83.6113 25.6934 83.4238 25.3008 83.0488 25.0195C82.6738 24.75 82.2109 24.5566 81.6602 24.4395C81.1211 24.334 80.4062 24.2344 79.5156 24.1406C78.9062 24.0703 78.4023 24.0059 78.0039 23.9473C77.6172 23.8887 77.2598 23.8066 76.9316 23.7012C75.5488 24.2871 74.8574 25.1367 74.8574 26.25C74.8574 27.75 76.3457 28.5 79.3223 28.5ZM95.5996 24.1758C94.0059 24.1758 92.7578 23.7305 91.8555 22.8398C90.9531 21.9375 90.502 20.6953 90.502 19.1133V8.28516C90.502 7.82812 90.9238 7.59961 91.7676 7.59961H91.8906C92.7227 7.59961 93.1387 7.82812 93.1387 8.28516V18.8672C93.1387 19.8281 93.4141 20.5781 93.9648 21.1172C94.5273 21.6445 95.3125 21.9082 96.3203 21.9082C97.0234 21.9082 97.7266 21.7148 98.4297 21.3281C99.1328 20.9297 99.7422 20.3906 100.258 19.7109V8.28516C100.258 7.82812 100.674 7.59961 101.506 7.59961H101.629C102.473 7.59961 102.895 7.82812 102.895 8.28516V19.377C102.895 20.7363 102.953 21.7207 103.07 22.3301C103.188 22.9277 103.246 23.2559 103.246 23.3145C103.246 23.5723 103.053 23.7598 102.666 23.877C102.279 23.9824 101.916 24.0352 101.576 24.0352C101.283 24.0352 101.066 23.8711 100.926 23.543C100.785 23.2031 100.68 22.8574 100.609 22.5059C100.551 22.1543 100.51 21.9316 100.486 21.8379C99.8301 22.5762 99.0684 23.1504 98.2012 23.5605C97.3457 23.9707 96.4785 24.1758 95.5996 24.1758ZM109.521 24.0527C109.076 24.0527 108.754 24 108.555 23.8945C108.355 23.7773 108.256 23.6016 108.256 23.3672V12.3984C108.256 11.0391 108.191 10.0605 108.062 9.46289C107.934 8.85352 107.869 8.51953 107.869 8.46094C107.869 8.20312 108.062 8.02148 108.449 7.91602C108.848 7.79883 109.223 7.74023 109.574 7.74023C109.867 7.74023 110.084 7.89844 110.225 8.21484C110.365 8.53125 110.465 8.85352 110.523 9.18164C110.594 9.50977 110.641 9.7207 110.664 9.81445C111.32 9.07617 112.076 8.50195 112.932 8.0918C113.799 7.68164 114.672 7.47656 115.551 7.47656C117.145 7.47656 118.387 7.92773 119.277 8.83008C120.18 9.7207 120.631 10.9512 120.631 12.5215V23.3672C120.631 23.6016 120.531 23.7773 120.332 23.8945C120.133 24 119.816 24.0527 119.383 24.0527H119.242C118.82 24.0527 118.51 24 118.311 23.8945C118.111 23.7773 118.012 23.6016 118.012 23.3672V12.7852C118.012 11.8242 117.73 11.0801 117.168 10.5527C116.617 10.0137 115.838 9.74414 114.83 9.74414C114.127 9.74414 113.418 9.94336 112.703 10.3418C112 10.7285 111.391 11.2617 110.875 11.9414V23.3672C110.875 23.6016 110.775 23.7773 110.576 23.8945C110.377 24 110.066 24.0527 109.645 24.0527H109.521ZM130.65 24.1758C129.432 24.1758 128.365 23.8242 127.451 23.1211C126.537 22.4062 125.828 21.416 125.324 20.1504C124.832 18.8848 124.586 17.4492 124.586 15.8438C124.586 14.0742 124.85 12.5625 125.377 11.3086C125.916 10.043 126.666 9.08789 127.627 8.44336C128.588 7.79883 129.695 7.47656 130.949 7.47656C131.852 7.47656 132.648 7.61133 133.34 7.88086C134.043 8.15039 134.734 8.54297 135.414 9.05859V1.18359C135.414 0.726562 135.824 0.498047 136.645 0.498047H136.785C137.617 0.498047 138.033 0.726562 138.033 1.18359V19.377C138.033 20.7363 138.098 21.7207 138.227 22.3301C138.355 22.9277 138.42 23.2559 138.42 23.3145C138.42 23.5723 138.221 23.7598 137.822 23.877C137.436 23.9824 137.072 24.0352 136.732 24.0352C136.498 24.0352 136.311 23.9238 136.17 23.7012C136.029 23.4785 135.93 23.2559 135.871 23.0332C135.824 22.7988 135.742 22.4004 135.625 21.8379C134.137 23.3965 132.479 24.1758 130.65 24.1758ZM131.195 21.9082C131.887 21.9082 132.602 21.7207 133.34 21.3457C134.09 20.9707 134.781 20.4375 135.414 19.7461V11.1855C134.289 10.248 133.006 9.7793 131.564 9.7793C130.17 9.81445 129.115 10.3242 128.4 11.3086C127.697 12.293 127.346 13.7227 127.346 15.5977C127.346 17.6133 127.674 19.1719 128.33 20.2734C128.998 21.3633 129.953 21.9082 131.195 21.9082ZM147.525 24.1758C145.932 24.1758 144.643 23.7832 143.658 22.998C142.674 22.2129 142.182 21.0469 142.182 19.5C142.182 17.8711 142.68 16.6465 143.676 15.8262C144.672 14.9941 145.885 14.4609 147.314 14.2266C148.756 13.9805 150.502 13.8398 152.553 13.8047V12.3281C152.553 11.543 152.283 10.916 151.744 10.4473C151.217 9.9668 150.344 9.72656 149.125 9.72656C148.199 9.72656 147.385 9.83789 146.682 10.0605C145.99 10.2715 145.34 10.5293 144.73 10.834C144.473 10.9629 144.314 11.0273 144.256 11.0273C144.115 11.0273 143.957 10.9277 143.781 10.7285C143.617 10.5176 143.471 10.2832 143.342 10.0254C143.225 9.76758 143.166 9.58008 143.166 9.46289C143.166 9.19336 143.441 8.90039 143.992 8.58398C144.555 8.26758 145.287 8.00391 146.189 7.79297C147.092 7.58203 148.035 7.47656 149.02 7.47656C150.977 7.47656 152.494 7.9043 153.572 8.75977C154.65 9.61523 155.189 10.8164 155.189 12.3633V19.377C155.189 20.7363 155.248 21.7207 155.365 22.3301C155.494 22.9277 155.559 23.2559 155.559 23.3145C155.559 23.5723 155.359 23.7598 154.961 23.877C154.574 23.9824 154.211 24.0352 153.871 24.0352C153.59 24.0352 153.379 23.877 153.238 23.5605C153.109 23.2441 152.98 22.7871 152.852 22.1895L152.781 21.8379C152.137 22.5527 151.375 23.1211 150.496 23.543C149.629 23.9648 148.639 24.1758 147.525 24.1758ZM147.666 21.9082C148.697 21.9082 149.576 21.7207 150.303 21.3457C151.029 20.9707 151.779 20.4375 152.553 19.7461V16.0547C151.006 16.0664 149.734 16.1309 148.738 16.248C147.742 16.3652 146.869 16.6641 146.119 17.1445C145.369 17.6133 144.994 18.3457 144.994 19.3418C144.994 20.1738 145.217 20.8125 145.662 21.2578C146.119 21.6914 146.787 21.9082 147.666 21.9082ZM159.549 24C159.42 24 159.273 23.8125 159.109 23.4375C158.945 23.0508 158.863 22.7051 158.863 22.4004C158.863 22.2832 158.893 22.166 158.951 22.0488L168.109 9.90234H160.111C159.889 9.90234 159.73 9.83203 159.637 9.69141C159.543 9.53906 159.496 9.29883 159.496 8.9707V8.58398C159.496 8.25586 159.543 8.02148 159.637 7.88086C159.73 7.72852 159.889 7.65234 160.111 7.65234H171.08C171.221 7.65234 171.361 7.8457 171.502 8.23242C171.643 8.61914 171.713 8.96484 171.713 9.26953C171.713 9.375 171.689 9.48633 171.643 9.60352L162.52 21.75H171.115C171.338 21.75 171.496 21.8262 171.59 21.9785C171.684 22.1191 171.73 22.3535 171.73 22.6816V23.0684C171.73 23.3848 171.684 23.6191 171.59 23.7715C171.496 23.9238 171.338 24 171.115 24H159.549ZM181.961 24.1758C179.605 24.1758 177.807 23.4727 176.564 22.0664C175.334 20.6484 174.719 18.5918 174.719 15.8965C174.719 13.2012 175.346 11.127 176.6 9.67383C177.854 8.20898 179.641 7.47656 181.961 7.47656C184.258 7.47656 186.016 8.20312 187.234 9.65625C188.453 11.0977 189.062 13.1777 189.062 15.8965C189.062 18.6035 188.459 20.6602 187.252 22.0664C186.057 23.4727 184.293 24.1758 181.961 24.1758ZM181.873 21.9258C183.396 21.9258 184.521 21.4336 185.248 20.4492C185.975 19.4531 186.338 17.918 186.338 15.8438C186.338 13.7578 185.975 12.2168 185.248 11.2207C184.521 10.2246 183.396 9.72656 181.873 9.72656C180.361 9.72656 179.248 10.2246 178.533 11.2207C177.818 12.2051 177.461 13.7461 177.461 15.8438C177.461 17.9297 177.812 19.4648 178.516 20.4492C179.23 21.4336 180.35 21.9258 181.873 21.9258ZM193.633 24.0527C193.199 24.0527 192.883 24 192.684 23.8945C192.484 23.7773 192.385 23.6016 192.385 23.3672V21.3105C192.385 20.8535 192.801 20.625 193.633 20.625H194.16C194.992 20.625 195.408 20.8535 195.408 21.3105V23.3672C195.408 23.6016 195.309 23.7773 195.109 23.8945C194.91 24 194.594 24.0527 194.16 24.0527H193.633ZM206.324 24.1758C203.734 24.1758 201.801 23.5137 200.523 22.1895C199.258 20.8535 198.625 18.709 198.625 15.7559C198.625 12.7676 199.334 10.6406 200.752 9.375C202.17 8.10938 203.934 7.47656 206.043 7.47656C206.828 7.47656 207.584 7.54688 208.311 7.6875C209.037 7.81641 209.623 7.99219 210.068 8.21484C210.514 8.4375 210.736 8.67188 210.736 8.91797C210.736 9.08203 210.678 9.29883 210.561 9.56836C210.455 9.83789 210.32 10.0781 210.156 10.2891C210.004 10.4883 209.863 10.5879 209.734 10.5879C209.699 10.5879 209.646 10.5762 209.576 10.5527C209.506 10.5176 209.441 10.4883 209.383 10.4648C208.328 9.97266 207.191 9.72656 205.973 9.72656C204.531 9.72656 203.418 10.2012 202.633 11.1504C201.848 12.0879 201.455 13.5996 201.455 15.6855C201.455 17.1621 201.613 18.3574 201.93 19.2715C202.246 20.1738 202.756 20.8418 203.459 21.2754C204.174 21.709 205.123 21.9258 206.307 21.9258C207.607 21.9258 208.779 21.6562 209.822 21.1172C209.928 21.0938 210.004 21.0703 210.051 21.0469C210.109 21.0117 210.15 20.9941 210.174 20.9941C210.303 20.9941 210.449 21.0938 210.613 21.293C210.777 21.4922 210.918 21.7207 211.035 21.9785C211.164 22.2363 211.229 22.4414 211.229 22.5938C211.229 22.8398 211.006 23.0859 210.561 23.332C210.115 23.5781 209.512 23.7832 208.75 23.9473C208 24.0996 207.191 24.1758 206.324 24.1758ZM221.125 24.1758C218.77 24.1758 216.971 23.4727 215.729 22.0664C214.498 20.6484 213.883 18.5918 213.883 15.8965C213.883 13.2012 214.51 11.127 215.764 9.67383C217.018 8.20898 218.805 7.47656 221.125 7.47656C223.422 7.47656 225.18 8.20312 226.398 9.65625C227.617 11.0977 228.227 13.1777 228.227 15.8965C228.227 18.6035 227.623 20.6602 226.416 22.0664C225.221 23.4727 223.457 24.1758 221.125 24.1758ZM221.037 21.9258C222.561 21.9258 223.686 21.4336 224.412 20.4492C225.139 19.4531 225.502 17.918 225.502 15.8438C225.502 13.7578 225.139 12.2168 224.412 11.2207C223.686 10.2246 222.561 9.72656 221.037 9.72656C219.525 9.72656 218.412 10.2246 217.697 11.2207C216.982 12.2051 216.625 13.7461 216.625 15.8438C216.625 17.9297 216.977 19.4648 217.68 20.4492C218.395 21.4336 219.514 21.9258 221.037 21.9258ZM249.197 7.47656C250.498 7.47656 251.641 7.8457 252.625 8.58398C253.609 9.32227 254.102 10.6348 254.102 12.5215V23.3672C254.102 23.6016 254.002 23.7773 253.803 23.8945C253.604 24 253.287 24.0527 252.854 24.0527H252.748C252.303 24.0527 251.98 24 251.781 23.8945C251.582 23.7773 251.482 23.6016 251.482 23.3672V12.7852C251.482 11.8359 251.225 11.0918 250.709 10.5527C250.205 10.0137 249.461 9.74414 248.477 9.74414C247.656 9.74414 246.912 9.98438 246.244 10.4648C245.588 10.9336 245.055 11.4258 244.645 11.9414C244.668 12.2227 244.68 12.4336 244.68 12.5742V23.3672C244.68 23.8242 244.258 24.0527 243.414 24.0527H243.291C242.459 24.0527 242.043 23.8242 242.043 23.3672V12.7852C242.043 11.8359 241.785 11.0918 241.27 10.5527C240.766 10.0137 240.021 9.74414 239.037 9.74414C238.357 9.74414 237.736 9.9082 237.174 10.2363C236.611 10.5527 236.143 10.8984 235.768 11.2734C235.404 11.6484 235.223 11.8594 235.223 11.9062V23.3672C235.223 23.6016 235.123 23.7773 234.924 23.8945C234.736 24 234.426 24.0527 233.992 24.0527H233.852C233.418 24.0527 233.102 24 232.902 23.8945C232.715 23.7773 232.621 23.6016 232.621 23.3672V12.3984C232.621 11.0391 232.557 10.0605 232.428 9.46289C232.299 8.85352 232.234 8.51953 232.234 8.46094C232.234 8.20312 232.428 8.02148 232.814 7.91602C233.213 7.79883 233.582 7.74023 233.922 7.74023C234.215 7.74023 234.432 7.89844 234.572 8.21484C234.713 8.53125 234.812 8.85352 234.871 9.18164C234.941 9.50977 234.988 9.7207 235.012 9.81445C235.586 9.14648 236.289 8.58984 237.121 8.14453C237.953 7.69922 238.832 7.47656 239.758 7.47656C240.707 7.47656 241.592 7.66992 242.412 8.05664C243.232 8.43164 243.836 9.09961 244.223 10.0605C244.867 9.29883 245.623 8.67773 246.49 8.19727C247.357 7.7168 248.26 7.47656 249.197 7.47656Z" fill="black"/>
<path d="M11.5586 23.8945L11.0516 24.7565L11.0709 24.7678L11.0907 24.7783L11.5586 23.8945ZM11.2598 4.50586H12.2598V3.50586H11.2598V4.50586ZM4.77344 2.36133L5.60549 2.91603L5.61557 2.90091L5.6251 2.88543L4.77344 2.36133ZM20.3828 2.36133L19.5312 2.88543L19.5407 2.90091L19.5508 2.91603L20.3828 2.36133ZM14.0195 4.50586V3.50586H13.0195V4.50586H14.0195ZM12.5078 23.0527C12.3283 23.0527 12.1985 23.0416 12.1097 23.0268C12.0165 23.0113 12.0002 22.9969 12.0265 23.0107L11.0907 24.7783C11.5141 25.0025 12.0355 25.0527 12.5078 25.0527V23.0527ZM12.0656 23.0326C12.0952 23.05 12.1559 23.0961 12.2045 23.1818C12.2527 23.2668 12.2598 23.3395 12.2598 23.3672H10.2598C10.2598 23.9498 10.5417 24.4565 11.0516 24.7565L12.0656 23.0326ZM12.2598 23.3672V4.50586H10.2598V23.3672H12.2598ZM11.2598 3.50586H5.24805V5.50586H11.2598V3.50586ZM5.24805 3.50586C5.24887 3.50586 5.26371 3.50589 5.28926 3.511C5.31531 3.51621 5.35268 3.52677 5.39622 3.54773C5.493 3.59433 5.57363 3.66962 5.6251 3.75325L3.92178 4.80144C4.24355 5.32433 4.77607 5.50586 5.24805 5.50586V3.50586ZM5.6251 3.75325C5.65724 3.80548 5.6561 3.82894 5.64855 3.79119C5.6414 3.75544 5.63281 3.68634 5.63281 3.57422H3.63281C3.63281 3.95206 3.68203 4.41184 3.92178 4.80144L5.6251 3.75325ZM5.63281 3.57422V3.06445H3.63281V3.57422H5.63281ZM5.63281 3.06445C5.63281 2.94376 5.64179 2.87248 5.64855 2.83869C5.65167 2.8231 5.65277 2.82343 5.64824 2.8355C5.64375 2.84749 5.63143 2.87712 5.60549 2.91603L3.94139 1.80663C3.67549 2.20547 3.63281 2.69473 3.63281 3.06445H5.63281ZM5.6251 2.88543C5.57363 2.96906 5.493 3.04435 5.39622 3.09094C5.35268 3.11191 5.31531 3.12246 5.28926 3.12768C5.26371 3.13278 5.24887 3.13281 5.24805 3.13281V1.13281C4.77607 1.13281 4.24355 1.31435 3.92178 1.83723L5.6251 2.88543ZM5.24805 3.13281H19.9082V1.13281H5.24805V3.13281ZM19.9082 3.13281C19.9074 3.13281 19.8925 3.13278 19.867 3.12768C19.8409 3.12246 19.8036 3.11191 19.76 3.09094C19.6633 3.04435 19.5826 2.96906 19.5312 2.88543L21.2345 1.83723C20.9127 1.31435 20.3802 1.13281 19.9082 1.13281V3.13281ZM19.5508 2.91603C19.5248 2.87712 19.5125 2.84749 19.508 2.8355C19.5035 2.82343 19.5046 2.8231 19.5077 2.83869C19.5145 2.87248 19.5234 2.94376 19.5234 3.06445H21.5234C21.5234 2.69473 21.4808 2.20547 21.2149 1.80663L19.5508 2.91603ZM19.5234 3.06445V3.57422H21.5234V3.06445H19.5234ZM19.5234 3.57422C19.5234 3.68634 19.5149 3.75544 19.5077 3.79119C19.5001 3.82894 19.499 3.80548 19.5312 3.75325L21.2345 4.80144C21.4742 4.41184 21.5234 3.95206 21.5234 3.57422H19.5234ZM19.5312 3.75325C19.5826 3.66962 19.6633 3.59433 19.76 3.54773C19.8036 3.52677 19.8409 3.51621 19.867 3.511C19.8925 3.50589 19.9074 3.50586 19.9082 3.50586V5.50586C20.3802 5.50586 20.9127 5.32433 21.2345 4.80144L19.5312 3.75325ZM19.9082 3.50586H14.0195V5.50586H19.9082V3.50586ZM13.0195 4.50586V23.3672H15.0195V4.50586H13.0195ZM13.0195 23.3672C13.0195 23.3221 13.0319 23.2355 13.0888 23.143C13.1441 23.0531 13.2079 23.0123 13.2268 23.0021C13.2404 22.9947 13.2169 23.0101 13.1299 23.0258C13.0452 23.0411 12.9225 23.0527 12.7539 23.0527V25.0527C13.2333 25.0527 13.7497 24.9934 14.1794 24.7606C14.4093 24.6361 14.6313 24.4525 14.7921 24.1912C14.9544 23.9274 15.0195 23.6408 15.0195 23.3672H13.0195ZM12.7539 23.0527H12.5078V25.0527H12.7539V23.0527ZM24.8477 22.8398L24.1405 23.547L24.1452 23.5516L24.8477 22.8398ZM26.957 21.1172L26.2576 21.8319L26.2652 21.8394L26.2731 21.8467L26.957 21.1172ZM31.4219 21.3281L31.9038 22.2044L31.9149 22.1981L31.4219 21.3281ZM33.25 19.7109L34.0467 20.3153L34.25 20.0473V19.7109H33.25ZM36.0625 22.3301L35.0805 22.5189L35.0812 22.5225L36.0625 22.3301ZM35.6582 23.877L35.9213 24.8417L35.9348 24.838L35.9482 24.834L35.6582 23.877ZM33.918 23.543L32.9939 23.9254L32.9988 23.9369L33.918 23.543ZM33.6016 22.5059L32.6152 22.6703L32.6178 22.6862L32.621 22.702L33.6016 22.5059ZM33.4785 21.8379L34.4487 21.5954L33.9893 19.758L32.7311 21.1735L33.4785 21.8379ZM31.1934 23.5605L30.7658 22.6565L30.761 22.6588L31.1934 23.5605ZM28.5918 23.1758C27.1899 23.1758 26.2202 22.7895 25.5501 22.1281L24.1452 23.5516C25.2798 24.6715 26.8062 25.1758 28.5918 25.1758V23.1758ZM25.5548 22.1327C24.8827 21.4607 24.4941 20.4974 24.4941 19.1133H22.4941C22.4941 20.8932 23.0079 22.4143 24.1405 23.547L25.5548 22.1327ZM24.4941 19.1133V8.28516H22.4941V19.1133H24.4941ZM24.4941 8.28516C24.4941 8.33028 24.4818 8.41689 24.4249 8.50933C24.3696 8.59921 24.3058 8.64003 24.2868 8.65029C24.2733 8.65761 24.2968 8.64224 24.3837 8.62654C24.4685 8.61125 24.5911 8.59961 24.7598 8.59961V6.59961C24.2803 6.59961 23.764 6.65894 23.3343 6.8917C23.1044 7.01622 22.8824 7.19986 22.7216 7.46113C22.5592 7.72496 22.4941 8.01152 22.4941 8.28516H24.4941ZM24.7598 8.59961H24.8828V6.59961H24.7598V8.59961ZM24.8828 8.59961C25.0479 8.59961 25.1672 8.61117 25.2487 8.6261C25.3324 8.64143 25.3531 8.65608 25.3374 8.64747C25.3161 8.63577 25.2524 8.59369 25.198 8.50402C25.1423 8.41238 25.1309 8.32771 25.1309 8.28516H27.1309C27.1309 8.01409 27.0674 7.72946 26.9078 7.46644C26.7493 7.20538 26.5296 7.02048 26.3003 6.89452C25.8718 6.65917 25.3576 6.59961 24.8828 6.59961V8.59961ZM25.1309 8.28516V18.8672H27.1309V8.28516H25.1309ZM25.1309 18.8672C25.1309 20.0266 25.4695 21.0605 26.2576 21.8319L27.6565 20.4025C27.343 20.0957 27.1309 19.6296 27.1309 18.8672H25.1309ZM26.2731 21.8467C27.0723 22.5959 28.131 22.9082 29.3125 22.9082V20.9082C28.4784 20.9082 27.9668 20.6931 27.641 20.3876L26.2731 21.8467ZM29.3125 22.9082C30.2067 22.9082 31.0741 22.6607 31.9038 22.2043L30.94 20.4519C30.3634 20.769 29.8246 20.9082 29.3125 20.9082V22.9082ZM31.9149 22.1981C32.7427 21.729 33.4536 21.0971 34.0467 20.3153L32.4533 19.1066C32.0152 19.6841 31.5073 20.1303 30.9289 20.4581L31.9149 22.1981ZM34.25 19.7109V8.28516H32.25V19.7109H34.25ZM34.25 8.28516C34.25 8.32771 34.2385 8.41238 34.1829 8.50402C34.1285 8.59369 34.0648 8.63577 34.0435 8.64747C34.0278 8.65608 34.0484 8.64143 34.1321 8.6261C34.2137 8.61117 34.333 8.59961 34.498 8.59961V6.59961C34.0232 6.59961 33.509 6.65917 33.0806 6.89452C32.8513 7.02048 32.6315 7.20538 32.4731 7.46644C32.3135 7.72946 32.25 8.01409 32.25 8.28516H34.25ZM34.498 8.59961H34.6211V6.59961H34.498V8.59961ZM34.6211 8.59961C34.7897 8.59961 34.9124 8.61125 34.9971 8.62654C35.0841 8.64224 35.1075 8.65761 35.094 8.65029C35.0751 8.64003 35.0113 8.59921 34.956 8.50933C34.8991 8.41689 34.8867 8.33028 34.8867 8.28516H36.8867C36.8867 8.01152 36.8216 7.72496 36.6593 7.46113C36.4985 7.19986 36.2765 7.01622 36.0466 6.8917C35.6169 6.65894 35.1005 6.59961 34.6211 6.59961V8.59961ZM34.8867 8.28516V19.377H36.8867V8.28516H34.8867ZM34.8867 19.377C34.8867 20.7432 34.944 21.8093 35.0805 22.5189L37.0445 22.1412C36.9466 21.6321 36.8867 20.7294 36.8867 19.377H34.8867ZM35.0812 22.5225C35.1394 22.8195 35.1821 23.0445 35.2099 23.2002C35.2239 23.2787 35.2332 23.334 35.2386 23.3698C35.2413 23.3879 35.2422 23.3954 35.2422 23.3953C35.2422 23.3952 35.2415 23.3893 35.2407 23.3794C35.2401 23.3721 35.2383 23.3477 35.2383 23.3145H37.2383C37.2383 23.21 37.2205 23.1 37.216 23.0702C37.2068 23.0092 37.194 22.9342 37.1788 22.8486C37.148 22.6762 37.1028 22.4383 37.0438 22.1377L35.0812 22.5225ZM35.2383 23.3145C35.2383 23.2505 35.251 23.1741 35.2848 23.0963C35.3181 23.0195 35.3619 22.9647 35.3971 22.9305C35.4578 22.8717 35.479 22.8863 35.3682 22.9199L35.9482 24.834C36.2241 24.7504 36.5354 24.6127 36.7894 24.3663C37.0706 24.0937 37.2383 23.7272 37.2383 23.3145H35.2383ZM35.3951 22.9122C35.0792 22.9983 34.8051 23.0352 34.5684 23.0352V25.0352C35.0113 25.0352 35.4638 24.9665 35.9213 24.8417L35.3951 22.9122ZM34.5684 23.0352C34.5894 23.0352 34.6251 23.0383 34.6693 23.0525C34.7142 23.0669 34.7554 23.0889 34.7895 23.1147C34.8563 23.1653 34.8598 23.202 34.8371 23.149L32.9988 23.9369C33.1168 24.2121 33.299 24.4949 33.5826 24.7095C33.8785 24.9334 34.222 25.0352 34.5684 25.0352V23.0352ZM34.842 23.1606C34.7256 22.8793 34.6394 22.5959 34.5821 22.3097L32.621 22.702C32.7044 23.1189 32.8291 23.5269 32.994 23.9253L34.842 23.1606ZM34.588 22.3415C34.5314 22.0024 34.4838 21.7361 34.4487 21.5954L32.5084 22.0804C32.5084 22.0804 32.5084 22.0807 32.5086 22.0814C32.5088 22.082 32.509 22.083 32.5093 22.0842C32.5099 22.0868 32.5107 22.0903 32.5117 22.0948C32.5137 22.1041 32.5163 22.1163 32.5195 22.132C32.5259 22.1635 32.5339 22.2046 32.5434 22.2564C32.5625 22.3599 32.5863 22.4973 32.6152 22.6703L34.588 22.3415ZM32.7311 21.1735C32.1615 21.8143 31.5077 22.3057 30.7658 22.6566L31.6209 24.4645C32.6134 23.9951 33.483 23.3381 34.2259 22.5023L32.7311 21.1735ZM30.761 22.6588C30.0296 23.0095 29.3094 23.1758 28.5918 23.1758V25.1758C29.632 25.1758 30.6462 24.9319 31.6257 24.4623L30.761 22.6588ZM42.9707 23.8066L42.7173 24.7741L42.7309 24.7775L42.9707 23.8066ZM40.5977 22.8926L40.0707 23.7425L40.0806 23.7486L40.0906 23.7545L40.5977 22.8926ZM39.9121 21.2578L39.0255 20.7952L39.0175 20.8107L39.01 20.8264L39.9121 21.2578ZM41.4238 20.502L40.914 21.3622L40.9392 21.3772L40.9652 21.3906L41.4238 20.502ZM49.7559 20.0625L48.9078 19.5325L48.9048 19.5374L49.7559 20.0625ZM49.6504 16.2129L48.8678 16.8354L48.8756 16.8452L48.8836 16.8548L49.6504 16.2129ZM48.1387 15L47.6773 15.8872L47.6879 15.8927L47.6985 15.8979L48.1387 15ZM45.5723 13.875L45.9403 12.9451L45.9312 12.9417L45.5723 13.875ZM42.6719 12.5742L42.168 13.438L42.1765 13.4429L42.185 13.4477L42.6719 12.5742ZM40.8613 10.7988L40.0176 11.3357L40.0235 11.3447L40.8613 10.7988ZM40.9844 4.73438L41.8216 5.28133L41.8248 5.27625L40.9844 4.73438ZM49.1934 2.18555L48.9779 3.16217L48.9917 3.165L49.1934 2.18555ZM51.2324 2.87109L50.7705 3.75804L50.778 3.76186L51.2324 2.87109ZM51.9004 4.4707L50.9983 4.03925L50.9941 4.04803L50.99 4.0569L51.9004 4.4707ZM50.459 5.22656L50.9446 4.35241L50.9371 4.34824L50.9296 4.34421L50.459 5.22656ZM48.8945 4.55859L48.5719 5.5051L48.5816 5.50841L48.5913 5.51152L48.8945 4.55859ZM44.0781 5.22656L43.4403 4.45635L43.4344 4.46134L44.0781 5.22656ZM46.8203 11.4141L46.4679 12.3499L46.5442 12.3786L46.6242 12.3946L46.8203 11.4141ZM47.2246 11.5547L46.8622 12.4867L46.8639 12.4874L47.2246 11.5547ZM50.2656 12.9609L49.7626 13.8252L49.7701 13.8296L49.7778 13.8339L50.2656 12.9609ZM52.2871 14.8945L51.4497 15.4412L51.4551 15.4492L52.2871 14.8945ZM52.2695 21.3457L51.4227 20.8137L51.4179 20.8216L52.2695 21.3457ZM49.8438 23.4551L50.2622 24.3633L50.2666 24.3613L49.8438 23.4551ZM46.1875 23.1758C45.1104 23.1758 44.1195 23.0604 43.2106 22.8358L42.7309 24.7775C43.8141 25.0451 44.9677 25.1758 46.1875 25.1758V23.1758ZM43.2241 22.8393C42.2912 22.595 41.5954 22.3193 41.1047 22.0306L40.0906 23.7545C40.7952 24.1689 41.6814 24.5027 42.7173 24.774L43.2241 22.8393ZM41.1246 22.0427C40.8725 21.8864 40.7416 21.7721 40.6844 21.708C40.6218 21.6379 40.7188 21.7111 40.7188 21.9082H38.7188C38.7188 22.3983 38.9622 22.782 39.1925 23.04C39.4283 23.3041 39.7369 23.5355 40.0707 23.7425L41.1246 22.0427ZM40.7188 21.9082C40.7188 21.9514 40.7113 21.9557 40.7256 21.9075C40.7391 21.8624 40.7657 21.7908 40.8142 21.6893L39.01 20.8264C38.8612 21.1375 38.7188 21.5178 38.7188 21.9082H40.7188ZM40.7987 21.7204C40.9098 21.5075 41.0294 21.3279 41.1549 21.1773L39.6185 19.8969C39.3925 20.1682 39.1957 20.4691 39.0255 20.7952L40.7987 21.7204ZM41.1549 21.1773C41.2176 21.1021 41.2403 21.0876 41.224 21.0998C41.2141 21.1073 41.1779 21.1334 41.1168 21.1596C41.0554 21.186 40.9488 21.2207 40.8086 21.2207V19.2207C40.4373 19.2207 40.1624 19.396 40.024 19.4998C39.8671 19.6175 39.7316 19.7612 39.6185 19.8969L41.1549 21.1773ZM40.8086 21.2207C40.7403 21.2207 40.6883 21.2125 40.6597 21.207C40.6295 21.2012 40.6089 21.1951 40.6004 21.1924C40.585 21.1876 40.5886 21.1875 40.617 21.2005C40.6737 21.2264 40.7699 21.2768 40.914 21.3622L41.9336 19.6417C41.7614 19.5396 41.5968 19.4494 41.4485 19.3815C41.3494 19.3362 41.0959 19.2207 40.8086 19.2207V21.2207ZM40.9652 21.3906C41.7312 21.786 42.4964 22.1161 43.2604 22.3791L43.9114 20.4881C43.2458 20.2589 42.5695 19.9679 41.8825 19.6133L40.9652 21.3906ZM43.2604 22.3791C44.1094 22.6714 45.0932 22.8027 46.1875 22.8027V20.8027C45.2427 20.8027 44.4922 20.688 43.9114 20.4881L43.2604 22.3791ZM46.1875 22.8027C47.1139 22.8027 47.9773 22.625 48.7549 22.2435L47.874 20.4479C47.4094 20.6758 46.8549 20.8027 46.1875 20.8027V22.8027ZM48.7549 22.2435C49.5331 21.8617 50.1612 21.31 50.6069 20.5876L48.9048 19.5374C48.6709 19.9166 48.338 20.2203 47.874 20.4479L48.7549 22.2435ZM50.6039 20.5925C51.0641 19.8561 51.2832 19.0244 51.2832 18.1289H49.2832C49.2832 18.6866 49.1507 19.1439 48.9079 19.5325L50.6039 20.5925ZM51.2832 18.1289C51.2832 17.1643 51.0155 16.2856 50.4171 15.571L48.8836 16.8548C49.129 17.148 49.2832 17.5466 49.2832 18.1289H51.2832ZM50.433 15.5904C49.9295 14.9575 49.3082 14.4596 48.5788 14.1021L47.6985 15.8979C48.1644 16.1263 48.5509 16.4371 48.8678 16.8354L50.433 15.5904ZM48.6 14.1128C47.9685 13.7844 47.0756 13.3946 45.9403 12.9452L45.2042 14.8048C46.3189 15.246 47.137 15.6062 47.6773 15.8872L48.6 14.1128ZM45.9312 12.9417C44.7339 12.4811 43.8156 12.0669 43.1587 11.7007L42.185 13.4477C42.9578 13.8784 43.9731 14.3314 45.2133 14.8083L45.9312 12.9417ZM43.1757 11.7104C42.6243 11.3887 42.1295 10.9135 41.6992 10.2529L40.0235 11.3447C40.6009 12.2311 41.3132 12.9394 42.168 13.438L43.1757 11.7104ZM41.705 10.262C41.3476 9.70037 41.123 8.88165 41.123 7.72266H39.123C39.123 9.11835 39.3907 10.3504 40.0177 11.3357L41.705 10.262ZM41.123 7.72266C41.123 6.79132 41.3601 5.98758 41.8215 5.28132L40.1472 4.18743C39.4602 5.23898 39.123 6.42743 39.123 7.72266H41.123ZM41.8248 5.27625C42.287 4.55936 42.9493 3.98697 43.8506 3.56634L43.0048 1.75397C41.7968 2.31772 40.8302 3.12814 40.1439 4.1925L41.8248 5.27625ZM43.8506 3.56634C44.7514 3.14599 45.8157 2.92188 47.0664 2.92188V0.921875C45.575 0.921875 44.2135 1.18995 43.0048 1.75397L43.8506 3.56634ZM47.0664 2.92188C47.5966 2.92188 48.2311 2.99733 48.978 3.16207L49.4088 1.20902C48.5618 1.0222 47.7784 0.921875 47.0664 0.921875V2.92188ZM48.9917 3.165C49.7221 3.31539 50.3094 3.51786 50.7705 3.75801L51.6944 1.98418C51.0304 1.63839 50.2583 1.38383 49.395 1.20609L48.9917 3.165ZM50.778 3.76186C51.0038 3.8771 51.101 3.96316 51.1318 3.99773C51.1439 4.01134 51.1334 4.00336 51.1199 3.9717C51.1053 3.93726 51.0938 3.89034 51.0938 3.83789H53.0938C53.0938 2.8737 52.3129 2.29973 51.6869 1.98033L50.778 3.76186ZM51.0938 3.83789C51.0938 3.78157 51.1041 3.76893 51.0891 3.81813C51.0755 3.86256 51.0482 3.93484 50.9983 4.03925L52.8025 4.90216C52.9455 4.60316 53.0938 4.22367 53.0938 3.83789H51.0938ZM50.99 4.0569C50.9033 4.24773 50.8024 4.41427 50.6892 4.55989L52.2679 5.78777C52.4827 5.51151 52.6631 5.2093 52.8108 4.88451L50.99 4.0569ZM50.6892 4.55989C50.629 4.6372 50.6082 4.65138 50.6256 4.63717C50.6357 4.62884 50.6745 4.59804 50.7406 4.56672C50.8064 4.53557 50.9283 4.49023 51.0918 4.49023V6.49023C51.4905 6.49023 51.773 6.28252 51.892 6.18509C52.0383 6.06542 52.1639 5.9214 52.2679 5.78777L50.6892 4.55989ZM51.0918 4.49023C51.146 4.49023 51.1875 4.49568 51.2117 4.49972C51.2368 4.5039 51.2537 4.50833 51.2606 4.51024C51.2728 4.51364 51.2673 4.51297 51.2391 4.50124C51.1821 4.47748 51.0866 4.43128 50.9446 4.35241L49.9733 6.10072C50.1478 6.19763 50.316 6.28326 50.4699 6.34739C50.588 6.39662 50.8255 6.49023 51.0918 6.49023V4.49023ZM50.9296 4.34421C50.3542 4.03733 49.7768 3.78992 49.1977 3.60567L48.5913 5.51152C49.0435 5.65539 49.5091 5.85329 49.9884 6.10892L50.9296 4.34421ZM49.2172 3.61208C48.5681 3.39081 47.8254 3.29492 47.0137 3.29492V5.29492C47.6785 5.29492 48.1897 5.37482 48.5719 5.5051L49.2172 3.61208ZM47.0137 3.29492C45.6313 3.29492 44.4095 3.6538 43.4403 4.45637L44.7159 5.99675C45.2468 5.55714 45.982 5.29492 47.0137 5.29492V3.29492ZM43.4344 4.46134C42.4341 5.30279 41.9707 6.47034 41.9707 7.82812H43.9707C43.9707 6.95935 44.2455 6.39252 44.7219 5.99179L43.4344 4.46134ZM41.9707 7.82812C41.9707 8.66308 42.1782 9.44001 42.6655 10.0839L44.2603 8.87703C44.0913 8.65374 43.9707 8.3291 43.9707 7.82812H41.9707ZM42.6655 10.0839C43.0883 10.6426 43.6231 11.0843 44.2555 11.4078L45.1664 9.62733C44.791 9.43525 44.4938 9.18552 44.2603 8.87703L42.6655 10.0839ZM44.2555 11.4078C44.808 11.6905 45.5511 12.0046 46.4679 12.3499L47.1728 10.4782C46.2849 10.1438 45.6217 9.86026 45.1664 9.62733L44.2555 11.4078ZM46.6242 12.3946C46.593 12.3884 46.5773 12.3831 46.5885 12.3865C46.5957 12.3887 46.6111 12.3936 46.6368 12.4025C46.6882 12.4204 46.7623 12.4478 46.8622 12.4867L47.5871 10.6227C47.4036 10.5513 47.1788 10.466 47.0164 10.4335L46.6242 12.3946ZM46.8639 12.4874C48.0773 12.9567 49.0386 13.4038 49.7626 13.8252L50.7687 12.0967C49.9223 11.604 48.8563 11.1136 47.5854 10.622L46.8639 12.4874ZM49.7778 13.8339C50.4193 14.1924 50.978 14.7185 51.4497 15.4412L53.1245 14.3479C52.4946 13.383 51.7057 12.6201 50.7534 12.088L49.7778 13.8339ZM51.4551 15.4492C51.88 16.0866 52.1309 16.9563 52.1309 18.1289H54.1309C54.1309 16.6765 53.8192 15.3899 53.1192 14.3398L51.4551 15.4492ZM52.1309 18.1289C52.1309 19.1982 51.8834 20.0805 51.4228 20.8138L53.1163 21.8777C53.8041 20.7828 54.1309 19.5206 54.1309 18.1289H52.1309ZM51.4179 20.8216C50.9665 21.555 50.314 22.1321 49.4209 22.5489L50.2666 24.3613C51.4829 23.7937 52.4475 22.9645 53.1212 21.8698L51.4179 20.8216ZM49.4253 22.5468C48.5386 22.9553 47.4679 23.1758 46.1875 23.1758V25.1758C47.6961 25.1758 49.0629 24.9158 50.2622 24.3633L49.4253 22.5468ZM57.8066 22.1543L57.0716 22.8323L57.0777 22.8389L57.8066 22.1543ZM57.7715 9.63867L58.5294 10.291L58.532 10.2879L57.7715 9.63867ZM68.0195 9.55078L67.2309 10.1657L67.2341 10.1698L68.0195 9.55078ZM69.4609 16.125L68.6077 15.6035L68.6033 15.6107L68.599 15.618L69.4609 16.125ZM69.0215 16.6699L69.7019 17.4027L69.7038 17.401L69.0215 16.6699ZM58.7383 16.8984V15.8984H57.6617L57.741 16.9721L58.7383 16.8984ZM60.0742 20.7305L59.3463 21.4162L59.3514 21.4216L59.3566 21.4269L60.0742 20.7305ZM65.7871 21.6094L65.4709 20.6607L65.4655 20.6625L65.7871 21.6094ZM67.6152 20.8359L67.2438 19.9075L67.1978 19.9259L67.1539 19.9487L67.6152 20.8359ZM68.5645 20.9414L67.7751 21.5553L67.7941 21.5798L67.8146 21.603L68.5645 20.9414ZM69.0039 21.627L68.0935 22.0408L68.1051 22.0662L68.1181 22.091L69.0039 21.627ZM66.3496 23.8418L66.1009 22.8732L66.0977 22.874L66.3496 23.8418ZM66.8594 14.6484V15.6484H67.8594V14.6484H66.8594ZM58.7383 14.6484L57.7408 14.5772L57.6643 15.6484H58.7383V14.6484ZM63.5898 23.1758C61.1627 23.1758 59.5465 22.5462 58.5356 21.4697L57.0777 22.8389C58.598 24.4577 60.8373 25.1758 63.5898 25.1758V23.1758ZM58.5417 21.4763C57.527 20.3762 56.9258 18.5938 56.9258 15.9316H54.9258C54.9258 18.8476 55.5785 21.2136 57.0716 22.8323L58.5417 21.4763ZM56.9258 15.9316C56.9258 13.2965 57.5139 11.4709 58.5294 10.291L57.0135 8.98635C55.5681 10.6658 54.9258 13.0355 54.9258 15.9316H56.9258ZM58.532 10.2879C59.5247 9.1251 61.0224 8.47656 63.2031 8.47656V6.47656C60.6026 6.47656 58.4792 7.26943 57.0109 8.98941L58.532 10.2879ZM63.2031 8.47656C65.1019 8.47656 66.3836 9.07888 67.2309 10.1656L68.8082 8.93591C67.4992 7.25706 65.57 6.47656 63.2031 6.47656V8.47656ZM67.2341 10.1698C68.1292 11.3055 68.6543 13.0749 68.6543 15.6328H70.6543C70.6543 12.847 70.0895 10.5617 68.8049 8.93178L67.2341 10.1698ZM68.6543 15.6328C68.6543 15.572 68.6624 15.5281 68.6675 15.5061C68.6726 15.4836 68.677 15.4736 68.6752 15.4781C68.6736 15.4821 68.6683 15.4949 68.6567 15.5173C68.6453 15.5394 68.6294 15.568 68.6077 15.6035L70.3142 16.6465C70.4541 16.4176 70.6543 16.0477 70.6543 15.6328H68.6543ZM68.599 15.618C68.5325 15.731 68.4475 15.8378 68.3392 15.9389L69.7038 17.401C69.9471 17.1739 70.155 16.9175 70.3229 16.632L68.599 15.618ZM68.341 15.9371C68.2981 15.977 68.2902 15.9764 68.3167 15.962C68.3417 15.9484 68.4423 15.8984 68.5996 15.8984V17.8984C69.1166 17.8984 69.5008 17.5894 69.7019 17.4027L68.341 15.9371ZM68.5996 15.8984H58.7383V17.8984H68.5996V15.8984ZM57.741 16.9721C57.8776 18.823 58.3591 20.3681 59.3463 21.4162L60.8021 20.0448C60.2659 19.4756 59.8567 18.4661 59.7356 16.8248L57.741 16.9721ZM59.3566 21.4269C60.3825 22.4839 61.846 22.9258 63.5547 22.9258V20.9258C62.1697 20.9258 61.3128 20.5708 60.7918 20.034L59.3566 21.4269ZM63.5547 22.9258C64.4982 22.9258 65.3568 22.8116 66.1087 22.5563L65.4655 20.6625C64.9753 20.829 64.3456 20.9258 63.5547 20.9258V22.9258ZM66.1033 22.5581C66.7856 22.3307 67.4435 22.0524 68.0766 21.7232L67.1539 19.9487C66.6151 20.2289 66.0543 20.4662 65.4709 20.6607L66.1033 22.5581ZM67.9866 21.7644C68.0858 21.7247 68.2045 21.6681 68.3261 21.6073L67.4317 19.8185C67.3189 19.8749 67.2618 19.9003 67.2438 19.9075L67.9866 21.7644ZM68.3261 21.6073C68.3647 21.588 68.3753 21.5849 68.3647 21.5887C68.3587 21.5909 68.3376 21.5982 68.3049 21.6056C68.2754 21.6123 68.2113 21.625 68.125 21.625V19.625C67.9272 19.625 67.7648 19.6792 67.692 19.7052C67.5993 19.7383 67.5103 19.7792 67.4317 19.8185L68.3261 21.6073ZM68.125 21.625C67.9108 21.625 67.778 21.5378 67.7472 21.5156C67.7156 21.4928 67.7264 21.4927 67.7751 21.5553L69.3538 20.3275C69.2385 20.1792 69.094 20.0208 68.9158 19.8926C68.7386 19.7649 68.4681 19.625 68.125 19.625V21.625ZM67.8146 21.603C67.9207 21.7233 68.0146 21.8671 68.0935 22.0408L69.9143 21.2132C69.7588 20.8712 69.5597 20.5579 69.3143 20.2798L67.8146 21.603ZM68.1181 22.091C68.1429 22.1384 68.1624 22.1783 68.1773 22.2114C68.1923 22.2447 68.2014 22.2679 68.2065 22.2822C68.2118 22.2971 68.2106 22.2964 68.2077 22.2827C68.205 22.2705 68.1973 22.2311 68.1973 22.1719H70.1973C70.1973 21.9495 70.1404 21.7516 70.0914 21.6133C70.0381 21.4634 69.9674 21.3113 69.8897 21.1629L68.1181 22.091ZM68.1973 22.1719C68.1973 21.9564 68.3037 21.8637 68.2599 21.9124C68.2436 21.9305 68.2091 21.9646 68.147 22.013C68.0857 22.0609 68.0049 22.117 67.9008 22.1809L68.9468 23.8855C69.2459 23.702 69.5289 23.4926 69.748 23.2487C69.962 23.0104 70.1973 22.6452 70.1973 22.1719H68.1973ZM67.9008 22.1809C67.5006 22.4265 66.9131 22.6647 66.1009 22.8732L66.5983 24.8104C67.5205 24.5736 68.3158 24.2727 68.9468 23.8855L67.9008 22.1809ZM66.0977 22.874C65.3332 23.073 64.4987 23.1758 63.5898 23.1758V25.1758C64.6497 25.1758 65.6551 25.0559 66.6015 24.8096L66.0977 22.874ZM67.8594 14.6484C67.8594 12.9094 67.5336 11.4221 66.7192 10.3516C65.8656 9.22939 64.602 8.72656 63.1152 8.72656V10.7266C64.1246 10.7266 64.7331 11.044 65.1275 11.5625C65.5611 12.1326 65.8594 13.1062 65.8594 14.6484H67.8594ZM63.1152 8.72656C61.5567 8.72656 60.2217 9.21225 59.261 10.2925C58.328 11.3417 57.8663 12.8212 57.7408 14.5772L59.7357 14.7197C59.8447 13.1945 60.2296 12.213 60.7556 11.6216C61.2539 11.0612 61.9902 10.7266 63.1152 10.7266V8.72656ZM58.7383 15.6484H66.8594V13.6484H58.7383V15.6484ZM75.3672 22.8398L75.7408 23.7674L76.0922 23.6259L76.2616 23.2871L75.3672 22.8398ZM75.4023 22.7695L76.2968 23.2167L76.6649 22.4805L76.0131 21.9777L75.4023 22.7695ZM74.4531 21.6797L73.5638 22.137L73.5689 22.147L73.5743 22.1568L74.4531 21.6797ZM75.8945 16.9512L76.468 17.7704L77.869 16.7897L76.3273 16.0496L75.8945 16.9512ZM73.8906 15.1758L73.0297 15.6845L73.0331 15.6903L73.8906 15.1758ZM73.9082 9.97266L73.0587 9.44494L73.053 9.45436L73.9082 9.97266ZM81.2031 7.65234L80.9907 8.62952L81.0957 8.65234H81.2031V7.65234ZM87.3555 7.88086L86.5038 8.40496L86.5279 8.4441L86.5555 8.48086L87.3555 7.88086ZM87.3555 9.69141L86.5333 9.1222L86.5283 9.12941L86.5234 9.13671L87.3555 9.69141ZM84.7012 9.81445L84.7886 8.81828L84.198 8.76647L83.8691 9.25975L84.7012 9.81445ZM84.666 9.86719L83.834 9.31249L83.4499 9.88859L83.854 10.4508L84.666 9.86719ZM85.2637 11.1328L84.2995 11.398L84.3035 11.4125L84.3079 11.4269L85.2637 11.1328ZM84.7539 15.1758L83.9044 14.6481L83.8987 14.6575L84.7539 15.1758ZM82.6621 17.0039L82.2286 16.1027L82.2241 16.1049L82.6621 17.0039ZM79.3223 17.6719V16.6719H79.3044L79.2866 16.6725L79.3223 17.6719ZM77.0898 18.2168L76.5441 17.3787L76.5351 17.3847L77.0898 18.2168ZM76.8789 21.0996L76.2387 21.8678L76.2449 21.873L76.2512 21.878L76.8789 21.0996ZM80.4824 22.0488L80.597 21.0554L80.5915 21.0548L80.4824 22.0488ZM81.3965 22.1543L81.5279 21.163L81.5195 21.1619L81.5111 21.1609L81.3965 22.1543ZM85.457 23.7891L84.683 24.4224L84.6917 24.4327L85.457 23.7891ZM84.2969 29.3965L83.7403 28.5657L83.7348 28.5694L84.2969 29.3965ZM76.6152 14.8945L76.0408 15.7131L76.0475 15.7177L76.6152 14.8945ZM82.5566 27.9199L82.086 27.0375L82.0747 27.0437L82.5566 27.9199ZM83.0488 25.0195L83.6488 24.2195L83.6407 24.2134L83.6325 24.2075L83.0488 25.0195ZM81.6602 24.4395L81.8683 23.4613L81.8602 23.4596L81.8522 23.4581L81.6602 24.4395ZM79.5156 24.1406L79.401 25.1341L79.4109 25.1351L79.5156 24.1406ZM78.0039 23.9473L77.8541 24.936L77.8584 24.9366L78.0039 23.9473ZM76.9316 23.7012L77.2376 22.7491L76.8838 22.6354L76.5415 22.7804L76.9316 23.7012ZM78.9883 29.627C77.0832 29.627 75.691 29.3272 74.7317 28.8137L73.7878 30.5769C75.1488 31.3056 76.909 31.627 78.9883 31.627V29.627ZM74.7317 28.8137C74.2869 28.5756 73.998 28.2946 73.8148 27.9857C73.6311 27.6759 73.5195 27.2799 73.5195 26.7598H71.5195C71.5195 27.5756 71.698 28.3368 72.0944 29.0056C72.4913 29.6751 73.0725 30.194 73.7878 30.5769L74.7317 28.8137ZM73.5195 26.7598C73.5195 26.0528 73.7182 25.4751 74.1006 24.9821L72.5205 23.7561C71.8482 24.6226 71.5195 25.6386 71.5195 26.7598H73.5195ZM74.1006 24.9821C74.5132 24.4504 75.0515 24.0451 75.7408 23.7674L74.9936 21.9123C73.9954 22.3143 73.1626 22.9285 72.5205 23.7561L74.1006 24.9821ZM76.2616 23.2871L76.2968 23.2167L74.5079 22.3223L74.4728 22.3926L76.2616 23.2871ZM76.0131 21.9777C75.7011 21.737 75.4812 21.4775 75.332 21.2026L73.5743 22.1568C73.8704 22.7022 74.2833 23.1692 74.7915 23.5613L76.0131 21.9777ZM75.3424 21.2223C75.2185 20.9814 75.1367 20.6586 75.1367 20.2207H73.1367C73.1367 20.9078 73.2659 21.5576 73.5638 22.137L75.3424 21.2223ZM75.1367 20.2207C75.1367 19.2073 75.5469 18.4152 76.468 17.7704L75.3211 16.1319C73.8984 17.1278 73.1367 18.5153 73.1367 20.2207H75.1367ZM76.3273 16.0496C75.6069 15.7039 75.0947 15.239 74.7481 14.6613L73.0331 15.6903C73.6006 16.636 74.4244 17.3547 75.4618 17.8527L76.3273 16.0496ZM74.7515 14.6671C74.3919 14.0585 74.2051 13.3691 74.2051 12.5742H72.2051C72.2051 13.7012 72.4753 14.7462 73.0297 15.6845L74.7515 14.6671ZM74.2051 12.5742C74.2051 11.7841 74.3954 11.0982 74.7634 10.491L73.053 9.45436C72.4836 10.394 72.2051 11.4424 72.2051 12.5742H74.2051ZM74.7576 10.5003C75.1253 9.90848 75.674 9.41947 76.451 9.0457L75.5841 7.24336C74.5096 7.76022 73.652 8.48996 73.0588 9.44497L74.7576 10.5003ZM76.451 9.0457C77.2105 8.68038 78.168 8.47656 79.3574 8.47656V6.47656C77.9453 6.47656 76.6762 6.71806 75.5841 7.24336L76.451 9.0457ZM79.3574 8.47656C79.9945 8.47656 80.5364 8.53075 80.9907 8.62952L81.4156 6.67517C80.7918 6.53956 80.1031 6.47656 79.3574 6.47656V8.47656ZM81.2031 8.65234H86.8809V6.65234H81.2031V8.65234ZM86.8809 8.65234C86.88 8.65234 86.8652 8.65232 86.8397 8.64721C86.8136 8.64199 86.7762 8.63144 86.7327 8.61047C86.6359 8.56388 86.5553 8.48859 86.5038 8.40496L88.2071 7.35676C87.8854 6.83388 87.3528 6.65234 86.8809 6.65234V8.65234ZM86.5555 8.48086C86.526 8.4415 86.5104 8.40934 86.5033 8.39261C86.4963 8.37608 86.4961 8.37088 86.4985 8.38162C86.5009 8.39216 86.5049 8.41378 86.5081 8.44881C86.5114 8.48362 86.5137 8.52828 86.5137 8.58398H88.5137C88.5137 8.20166 88.4626 7.69032 88.1555 7.28086L86.5555 8.48086ZM86.5137 8.58398V8.9707H88.5137V8.58398H86.5137ZM86.5137 8.9707C86.5137 9.08498 86.5041 9.15175 86.4974 9.18257C86.4903 9.21488 86.4919 9.18191 86.5333 9.1222L88.1777 10.2606C88.4582 9.85541 88.5137 9.3645 88.5137 8.9707H86.5137ZM86.5234 9.13671C86.5843 9.04538 86.6708 8.97561 86.7604 8.9358C86.8401 8.90035 86.8907 8.90234 86.8809 8.90234V10.9023C87.3197 10.9023 87.8512 10.7506 88.1875 10.2461L86.5234 9.13671ZM86.8809 8.90234C86.1201 8.90234 85.4231 8.87394 84.7886 8.81828L84.6138 10.8106C85.3152 10.8722 86.0713 10.9023 86.8809 10.9023V8.90234ZM83.8691 9.25975L83.834 9.31249L85.4981 10.4219L85.5332 10.3692L83.8691 9.25975ZM83.854 10.4508C84.0507 10.7245 84.2003 11.0375 84.2995 11.398L86.2279 10.8677C86.0692 10.2907 85.8204 9.75985 85.478 9.28355L83.854 10.4508ZM84.3079 11.4269C84.4177 11.7836 84.4746 12.1646 84.4746 12.5742H86.4746C86.4746 11.976 86.3909 11.396 86.2195 10.8387L84.3079 11.4269ZM84.4746 12.5742C84.4746 13.3595 84.281 14.042 83.9045 14.6481L85.6033 15.7035C86.1878 14.7627 86.4746 13.7108 86.4746 12.5742H84.4746ZM83.8987 14.6575C83.5436 15.2433 83.0042 15.7297 82.2286 16.1027L83.0956 17.9051C84.1716 17.3875 85.0267 16.6551 85.6091 15.6941L83.8987 14.6575ZM82.2241 16.1049C81.4802 16.4673 80.5256 16.6719 79.3223 16.6719V18.6719C80.7439 18.6719 82.0159 18.4311 83.1001 17.9029L82.2241 16.1049ZM79.2866 16.6725C78.2245 16.7104 77.2686 16.9071 76.5442 17.3788L77.6355 19.0548C77.9189 18.8702 78.4513 18.7036 79.358 18.6712L79.2866 16.6725ZM76.5351 17.3847C75.6901 17.9481 75.3516 18.8507 75.3516 19.834H77.3516C77.3516 19.3173 77.5053 19.1417 77.6445 19.0488L76.5351 17.3847ZM75.3516 19.834C75.3516 20.615 75.6125 21.346 76.2387 21.8678L77.5191 20.3314C77.4422 20.2673 77.3516 20.1546 77.3516 19.834H75.3516ZM76.2512 21.878C76.7557 22.2849 77.3564 22.5478 78.02 22.692L78.4449 20.7377C78.0303 20.6475 77.7287 20.5002 77.5067 20.3212L76.2512 21.878ZM78.02 22.692C78.6093 22.8201 79.3993 22.936 80.3733 23.0429L80.5915 21.0548C79.6437 20.9508 78.9336 20.8439 78.4449 20.7377L78.02 22.692ZM80.3678 23.0422L81.2819 23.1477L81.5111 21.1609L80.597 21.0554L80.3678 23.0422ZM81.2651 23.1456C82.1975 23.2692 82.9436 23.4335 83.5185 23.6286L84.1611 21.7347C83.4236 21.4844 82.5408 21.2972 81.5279 21.163L81.2651 23.1456ZM83.5185 23.6286C84.005 23.7937 84.3847 24.0576 84.6831 24.4223L86.231 23.1558C85.6857 22.4893 84.9872 22.0149 84.1611 21.7347L83.5185 23.6286ZM84.6917 24.4327C84.929 24.7149 85.1074 25.1688 85.1074 25.916H87.1074C87.1074 24.8586 86.8523 23.8945 86.2224 23.1455L84.6917 24.4327ZM85.1074 25.916C85.1074 27.1104 84.657 27.9516 83.7403 28.5657L84.8534 30.2273C86.3508 29.2242 87.1074 27.7451 87.1074 25.916H85.1074ZM83.7348 28.5694C82.7657 29.228 81.2297 29.627 78.9883 29.627V31.627C81.4109 31.627 83.414 31.2056 84.859 30.2236L83.7348 28.5694ZM79.3223 16.5977C80.5967 16.5977 81.7319 16.3386 82.6322 15.7177L81.4967 14.0713C81.0377 14.3879 80.3447 14.5977 79.3223 14.5977V16.5977ZM82.6322 15.7177C83.6599 15.009 84.084 13.8802 84.084 12.5918H82.084C82.084 13.4362 81.8284 13.8426 81.4967 14.0713L82.6322 15.7177ZM84.084 12.5918C84.084 11.3649 83.6916 10.2855 82.77 9.54477C81.8902 8.83764 80.6838 8.56836 79.3223 8.56836V10.5684C80.4685 10.5684 81.143 10.803 81.5171 11.1037C81.8494 11.3708 82.084 11.8031 82.084 12.5918H84.084ZM79.3223 8.56836C77.9758 8.56836 76.7803 8.83865 75.9087 9.54912C74.998 10.2915 74.6133 11.3697 74.6133 12.5918H76.6133C76.6133 11.7983 76.8467 11.3648 77.1724 11.0993C77.5371 10.802 78.1961 10.5684 79.3223 10.5684V8.56836ZM74.6133 12.5918C74.6133 13.8735 75.0268 15.0015 76.0408 15.7131L77.1897 14.076C76.8677 13.85 76.6133 13.4429 76.6133 12.5918H74.6133ZM76.0475 15.7177C76.9448 16.3366 78.0662 16.5977 79.3223 16.5977V14.5977C78.3283 14.5977 77.6451 14.39 77.183 14.0713L76.0475 15.7177ZM79.3223 29.5C80.8275 29.5 82.1115 29.306 83.0386 28.7961L82.0747 27.0437C81.5955 27.3073 80.7233 27.5 79.3223 27.5V29.5ZM83.0272 28.8023C83.507 28.5464 83.9159 28.1951 84.2005 27.7302C84.4861 27.2636 84.6113 26.7403 84.6113 26.1973H82.6113C82.6113 26.4277 82.5607 26.5782 82.4948 26.6859C82.4279 26.7952 82.3094 26.9184 82.0861 27.0376L83.0272 28.8023ZM84.6113 26.1973C84.6113 25.406 84.2968 24.7055 83.6488 24.2195L82.4488 25.8195C82.5509 25.8961 82.6113 25.9807 82.6113 26.1973H84.6113ZM83.6325 24.2075C83.1233 23.8416 82.5254 23.6012 81.8683 23.4613L81.452 25.4176C81.8965 25.5121 82.2243 25.6584 82.4652 25.8315L83.6325 24.2075ZM81.8522 23.4581C81.272 23.3445 80.5245 23.2413 79.6203 23.1461L79.4109 25.1351C80.288 25.2275 80.9702 25.3234 81.4681 25.4208L81.8522 23.4581ZM79.6302 23.1472C79.0265 23.0775 78.5338 23.0144 78.1494 22.9579L77.8584 24.9366C78.2709 24.9973 78.786 25.0631 79.401 25.134L79.6302 23.1472ZM78.1537 22.9585C77.813 22.9069 77.5085 22.8362 77.2376 22.7491L76.6256 24.6532C77.011 24.7771 77.4213 24.8704 77.8541 24.936L78.1537 22.9585ZM76.5415 22.7804C75.7529 23.1146 75.0801 23.5572 74.6004 24.1466C74.107 24.7529 73.8574 25.4675 73.8574 26.25H75.8574C75.8574 25.9192 75.9536 25.6523 76.1516 25.409C76.3633 25.1489 76.7276 24.8737 77.3218 24.6219L76.5415 22.7804ZM73.8574 26.25C73.8574 26.7984 73.9962 27.3231 74.3024 27.7861C74.6047 28.2431 75.0323 28.5829 75.5236 28.8305C76.4777 29.3113 77.7823 29.5 79.3223 29.5V27.5C77.8857 27.5 76.9578 27.3137 76.4237 27.0445C76.1708 26.9171 76.0403 26.7881 75.9705 26.6827C75.9047 26.5831 75.8574 26.4516 75.8574 26.25H73.8574ZM91.8555 22.8398L91.1483 23.547L91.153 23.5516L91.8555 22.8398ZM93.9648 21.1172L93.2654 21.8319L93.2731 21.8394L93.2809 21.8467L93.9648 21.1172ZM98.4297 21.3281L98.9116 22.2044L98.9227 22.1981L98.4297 21.3281ZM100.258 19.7109L101.055 20.3153L101.258 20.0473V19.7109H100.258ZM103.07 22.3301L102.088 22.5189L102.089 22.5225L103.07 22.3301ZM102.666 23.877L102.929 24.8417L102.943 24.838L102.956 24.834L102.666 23.877ZM100.926 23.543L100.002 23.9254L100.007 23.9369L100.926 23.543ZM100.609 22.5059L99.623 22.6703L99.6256 22.6862L99.6288 22.702L100.609 22.5059ZM100.486 21.8379L101.456 21.5954L100.997 19.758L99.7389 21.1735L100.486 21.8379ZM98.2012 23.5605L97.7736 22.6565L97.7688 22.6588L98.2012 23.5605ZM95.5996 23.1758C94.1977 23.1758 93.228 22.7895 92.5579 22.1281L91.153 23.5516C92.2877 24.6715 93.814 25.1758 95.5996 25.1758V23.1758ZM92.5626 22.1327C91.8905 21.4607 91.502 20.4974 91.502 19.1133H89.502C89.502 20.8932 90.0157 22.4143 91.1484 23.547L92.5626 22.1327ZM91.502 19.1133V8.28516H89.502V19.1133H91.502ZM91.502 8.28516C91.502 8.33028 91.4896 8.41689 91.4327 8.50933C91.3774 8.59921 91.3136 8.64003 91.2946 8.65029C91.2811 8.65761 91.3046 8.64224 91.3915 8.62654C91.4763 8.61125 91.599 8.59961 91.7676 8.59961V6.59961C91.2881 6.59961 90.7718 6.65894 90.3421 6.8917C90.1122 7.01622 89.8902 7.19986 89.7294 7.46113C89.567 7.72496 89.502 8.01152 89.502 8.28516H91.502ZM91.7676 8.59961H91.8906V6.59961H91.7676V8.59961ZM91.8906 8.59961C92.0557 8.59961 92.175 8.61117 92.2565 8.6261C92.3402 8.64143 92.3609 8.65608 92.3452 8.64747C92.3239 8.63577 92.2602 8.59369 92.2058 8.50402C92.1502 8.41238 92.1387 8.32771 92.1387 8.28516H94.1387C94.1387 8.01409 94.0752 7.72946 93.9156 7.46644C93.7571 7.20538 93.5374 7.02048 93.3081 6.89452C92.8796 6.65917 92.3654 6.59961 91.8906 6.59961V8.59961ZM92.1387 8.28516V18.8672H94.1387V8.28516H92.1387ZM92.1387 18.8672C92.1387 20.0266 92.4773 21.0605 93.2654 21.8319L94.6643 20.4025C94.3508 20.0957 94.1387 19.6296 94.1387 18.8672H92.1387ZM93.2809 21.8467C94.0801 22.5959 95.1388 22.9082 96.3203 22.9082V20.9082C95.4862 20.9082 94.9746 20.6931 94.6488 20.3876L93.2809 21.8467ZM96.3203 22.9082C97.2145 22.9082 98.0819 22.6607 98.9116 22.2043L97.9478 20.4519C97.3712 20.769 96.8324 20.9082 96.3203 20.9082V22.9082ZM98.9227 22.1981C99.7506 21.729 100.461 21.0971 101.055 20.3153L99.4611 19.1066C99.023 19.6841 98.5151 20.1303 97.9367 20.4581L98.9227 22.1981ZM101.258 19.7109V8.28516H99.2578V19.7109H101.258ZM101.258 8.28516C101.258 8.32771 101.246 8.41238 101.191 8.50402C101.136 8.59369 101.073 8.63577 101.051 8.64747C101.036 8.65608 101.056 8.64143 101.14 8.6261C101.222 8.61117 101.341 8.59961 101.506 8.59961V6.59961C101.031 6.59961 100.517 6.65917 100.088 6.89452C99.8591 7.02048 99.6393 7.20538 99.4809 7.46644C99.3213 7.72946 99.2578 8.01409 99.2578 8.28516H101.258ZM101.506 8.59961H101.629V6.59961H101.506V8.59961ZM101.629 8.59961C101.798 8.59961 101.92 8.61125 102.005 8.62654C102.092 8.64224 102.115 8.65761 102.102 8.65029C102.083 8.64003 102.019 8.59921 101.964 8.50933C101.907 8.41689 101.895 8.33028 101.895 8.28516H103.895C103.895 8.01152 103.829 7.72496 103.667 7.46113C103.506 7.19986 103.284 7.01622 103.054 6.8917C102.625 6.65894 102.108 6.59961 101.629 6.59961V8.59961ZM101.895 8.28516V19.377H103.895V8.28516H101.895ZM101.895 19.377C101.895 20.7432 101.952 21.8093 102.088 22.5189L104.052 22.1412C103.954 21.6321 103.895 20.7294 103.895 19.377H101.895ZM102.089 22.5225C102.147 22.8195 102.19 23.0445 102.218 23.2002C102.232 23.2787 102.241 23.334 102.246 23.3698C102.249 23.3879 102.25 23.3954 102.25 23.3953C102.25 23.3952 102.249 23.3893 102.249 23.3794C102.248 23.3721 102.246 23.3477 102.246 23.3145H104.246C104.246 23.21 104.228 23.1 104.224 23.0702C104.215 23.0092 104.202 22.9342 104.187 22.8486C104.156 22.6762 104.111 22.4383 104.052 22.1377L102.089 22.5225ZM102.246 23.3145C102.246 23.2505 102.259 23.1741 102.293 23.0963C102.326 23.0195 102.37 22.9647 102.405 22.9305C102.466 22.8717 102.487 22.8863 102.376 22.9199L102.956 24.834C103.232 24.7504 103.543 24.6127 103.797 24.3663C104.078 24.0937 104.246 23.7272 104.246 23.3145H102.246ZM102.403 22.9122C102.087 22.9983 101.813 23.0352 101.576 23.0352V25.0352C102.019 25.0352 102.472 24.9665 102.929 24.8417L102.403 22.9122ZM101.576 23.0352C101.597 23.0352 101.633 23.0383 101.677 23.0525C101.722 23.0669 101.763 23.0889 101.797 23.1147C101.864 23.1653 101.868 23.202 101.845 23.149L100.007 23.9369C100.125 24.2121 100.307 24.4949 100.59 24.7095C100.886 24.9334 101.23 25.0352 101.576 25.0352V23.0352ZM101.85 23.1606C101.733 22.8793 101.647 22.5959 101.59 22.3097L99.6288 22.702C99.7122 23.1189 99.8369 23.5269 100.002 23.9253L101.85 23.1606ZM101.596 22.3415C101.539 22.0024 101.492 21.7361 101.456 21.5954L99.5162 22.0804C99.5162 22.0804 99.5163 22.0807 99.5164 22.0814C99.5166 22.082 99.5168 22.083 99.5171 22.0842C99.5177 22.0868 99.5185 22.0903 99.5195 22.0948C99.5215 22.1041 99.5241 22.1163 99.5273 22.132C99.5338 22.1635 99.5417 22.2046 99.5512 22.2564C99.5703 22.3599 99.5942 22.4973 99.623 22.6703L101.596 22.3415ZM99.7389 21.1735C99.1694 21.8143 98.5155 22.3057 97.7736 22.6566L98.6287 24.4645C99.6212 23.9951 100.491 23.3381 101.234 22.5023L99.7389 21.1735ZM97.7688 22.6588C97.0374 23.0095 96.3172 23.1758 95.5996 23.1758V25.1758C96.6398 25.1758 97.654 24.9319 98.6335 24.4623L97.7688 22.6588ZM108.555 23.8945L108.048 24.7565L108.067 24.7678L108.087 24.7783L108.555 23.8945ZM108.062 9.46289L107.084 9.66985L107.085 9.67373L108.062 9.46289ZM108.449 7.91602L108.712 8.88078L108.722 8.87817L108.731 8.87538L108.449 7.91602ZM110.523 9.18164L109.539 9.35743L109.542 9.37436L109.546 9.39117L110.523 9.18164ZM110.664 9.81445L109.694 10.057L110.153 11.8943L111.411 10.4788L110.664 9.81445ZM112.932 8.0918L112.504 7.1878L112.499 7.19008L112.932 8.0918ZM119.277 8.83008L118.566 9.53261L118.575 9.54179L119.277 8.83008ZM120.332 23.8945L120.8 24.7783L120.82 24.7678L120.839 24.7565L120.332 23.8945ZM118.311 23.8945L117.804 24.7565L117.823 24.7678L117.843 24.7783L118.311 23.8945ZM117.168 10.5527L116.469 11.2674L116.476 11.2749L116.484 11.2823L117.168 10.5527ZM112.703 10.3418L113.185 11.218L113.19 11.2153L112.703 10.3418ZM110.875 11.9414L110.078 11.337L109.875 11.605V11.9414H110.875ZM110.576 23.8945L111.044 24.7783L111.064 24.7678L111.083 24.7565L110.576 23.8945ZM109.521 23.0527C109.335 23.0527 109.2 23.0414 109.107 23.0263C109.01 23.0103 108.994 22.9955 109.023 23.0107L108.087 24.7783C108.513 25.0037 109.043 25.0527 109.521 25.0527V23.0527ZM109.062 23.0326C109.091 23.05 109.152 23.0961 109.201 23.1818C109.249 23.2668 109.256 23.3395 109.256 23.3672H107.256C107.256 23.9498 107.538 24.4565 108.048 24.7565L109.062 23.0326ZM109.256 23.3672V12.3984H107.256V23.3672H109.256ZM109.256 12.3984C109.256 11.0327 109.193 9.96194 109.04 9.25205L107.085 9.67373C107.19 10.1592 107.256 11.0454 107.256 12.3984H109.256ZM109.041 9.25593C108.977 8.95314 108.93 8.72412 108.899 8.56589C108.884 8.48611 108.874 8.43022 108.868 8.39451C108.865 8.37633 108.864 8.36939 108.864 8.37038C108.864 8.37099 108.865 8.37779 108.866 8.38886C108.867 8.39709 108.869 8.42411 108.869 8.46094H106.869C106.869 8.57307 106.89 8.69046 106.894 8.71853C106.905 8.78096 106.919 8.85764 106.936 8.94486C106.97 9.12061 107.019 9.36326 107.084 9.66985L109.041 9.25593ZM108.869 8.46094C108.869 8.52475 108.856 8.60342 108.821 8.6846C108.785 8.76514 108.738 8.82324 108.699 8.8602C108.631 8.92403 108.603 8.91066 108.712 8.88078L108.186 6.95125C107.909 7.02684 107.591 7.15702 107.329 7.4025C107.038 7.67613 106.869 8.04705 106.869 8.46094H108.869ZM108.731 8.87538C109.054 8.78041 109.334 8.74023 109.574 8.74023V6.74023C109.112 6.74023 108.641 6.81725 108.167 6.95665L108.731 8.87538ZM109.574 8.74023C109.557 8.74023 109.524 8.73773 109.483 8.72496C109.441 8.71192 109.401 8.69164 109.367 8.66668C109.299 8.61681 109.291 8.57738 109.311 8.62098L111.138 7.8087C111.017 7.5359 110.831 7.25916 110.546 7.0511C110.251 6.83554 109.912 6.74023 109.574 6.74023V8.74023ZM109.311 8.62098C109.42 8.86659 109.495 9.11168 109.539 9.35743L111.508 9.00585C111.435 8.59535 111.311 8.19591 111.138 7.8087L109.311 8.62098ZM109.546 9.39117C109.615 9.71475 109.666 9.94351 109.694 10.057L111.634 9.57192C111.616 9.49789 111.573 9.30478 111.501 8.97211L109.546 9.39117ZM111.411 10.4788C111.983 9.83562 112.633 9.34389 113.364 8.99351L112.499 7.19008C111.519 7.66001 110.657 8.31672 109.917 9.15009L111.411 10.4788ZM113.359 8.99578C114.105 8.64299 114.833 8.47656 115.551 8.47656V6.47656C114.511 6.47656 113.493 6.72029 112.504 7.18781L113.359 8.99578ZM115.551 8.47656C116.95 8.47656 117.908 8.8667 118.566 9.53255L119.989 8.12761C118.865 6.98876 117.339 6.47656 115.551 6.47656V8.47656ZM118.575 9.54179C119.244 10.2017 119.631 11.1509 119.631 12.5215H121.631C121.631 10.7514 121.116 9.23966 119.98 8.11836L118.575 9.54179ZM119.631 12.5215V23.3672H121.631V12.5215H119.631ZM119.631 23.3672C119.631 23.3395 119.638 23.2668 119.686 23.1818C119.735 23.0961 119.795 23.05 119.825 23.0326L120.839 24.7565C121.349 24.4565 121.631 23.9498 121.631 23.3672H119.631ZM119.864 23.0107C119.89 22.9969 119.874 23.0113 119.781 23.0268C119.692 23.0416 119.562 23.0527 119.383 23.0527V25.0527C119.855 25.0527 120.377 25.0025 120.8 24.7783L119.864 23.0107ZM119.383 23.0527H119.242V25.0527H119.383V23.0527ZM119.242 23.0527C119.07 23.0527 118.945 23.0417 118.86 23.0273C118.772 23.0122 118.755 22.9982 118.778 23.0107L117.843 24.7783C118.263 25.0011 118.776 25.0527 119.242 25.0527V23.0527ZM118.818 23.0326C118.847 23.05 118.908 23.0961 118.956 23.1818C119.005 23.2668 119.012 23.3395 119.012 23.3672H117.012C117.012 23.9498 117.294 24.4565 117.804 24.7565L118.818 23.0326ZM119.012 23.3672V12.7852H117.012V23.3672H119.012ZM119.012 12.7852C119.012 11.6205 118.664 10.5842 117.852 9.8232L116.484 11.2823C116.797 11.576 117.012 12.0279 117.012 12.7852H119.012ZM117.867 9.83807C117.078 9.06504 116.016 8.74414 114.83 8.74414V10.7441C115.66 10.7441 116.157 10.9623 116.469 11.2674L117.867 9.83807ZM114.83 8.74414C113.93 8.74414 113.055 9.00061 112.216 9.46832L113.19 11.2153C113.781 10.8861 114.323 10.7441 114.83 10.7441V8.74414ZM112.221 9.46558C111.388 9.92406 110.673 10.5528 110.078 11.337L111.672 12.5458C112.108 11.9706 112.612 11.533 113.185 11.218L112.221 9.46558ZM109.875 11.9414V23.3672H111.875V11.9414H109.875ZM109.875 23.3672C109.875 23.3395 109.882 23.2668 109.93 23.1818C109.979 23.0961 110.04 23.05 110.069 23.0326L111.083 24.7565C111.593 24.4565 111.875 23.9498 111.875 23.3672H109.875ZM110.108 23.0107C110.132 22.9982 110.115 23.0122 110.026 23.0273C109.941 23.0417 109.817 23.0527 109.645 23.0527V25.0527C110.111 25.0527 110.623 25.0011 111.044 24.7783L110.108 23.0107ZM109.645 23.0527H109.521V25.0527H109.645V23.0527ZM127.451 23.1211L126.835 23.9088L126.841 23.9137L127.451 23.1211ZM125.324 20.1504L124.392 20.5128L124.395 20.5203L125.324 20.1504ZM125.377 11.3086L124.457 10.9167L124.455 10.9209L125.377 11.3086ZM133.34 7.88086L132.977 8.81258L132.982 8.81461L133.34 7.88086ZM135.414 9.05859L134.81 9.85529L136.414 11.0724V9.05859H135.414ZM138.227 22.3301L137.248 22.537L137.249 22.5409L138.227 22.3301ZM137.822 23.877L138.085 24.8417L138.095 24.8391L138.104 24.8363L137.822 23.877ZM135.871 23.0332L134.891 23.2293L134.896 23.2587L134.904 23.2877L135.871 23.0332ZM135.625 21.8379L136.604 21.6339L136.216 19.7711L134.902 21.1473L135.625 21.8379ZM133.34 21.3457L132.893 20.4513L132.887 20.4541L133.34 21.3457ZM135.414 19.7461L136.152 20.4213L136.414 20.1346V19.7461H135.414ZM135.414 11.1855H136.414V10.7172L136.054 10.4173L135.414 11.1855ZM131.564 9.7793V8.7793H131.552L131.539 8.77962L131.564 9.7793ZM128.4 11.3086L127.591 10.721L127.587 10.7274L128.4 11.3086ZM128.33 20.2734L127.471 20.7853L127.477 20.796L128.33 20.2734ZM130.65 23.1758C129.639 23.1758 128.79 22.8892 128.061 22.3285L126.841 23.9137C127.941 24.7593 129.225 25.1758 130.65 25.1758V23.1758ZM128.067 22.3334C127.315 21.7453 126.703 20.9104 126.253 19.7805L124.395 20.5203C124.953 21.9216 125.759 23.0672 126.835 23.9088L128.067 22.3334ZM126.256 19.7879C125.816 18.6569 125.586 17.3474 125.586 15.8438H123.586C123.586 17.5511 123.848 19.1127 124.392 20.5128L126.256 19.7879ZM125.586 15.8438C125.586 14.1692 125.836 12.7965 126.299 11.6963L124.455 10.9209C123.863 12.3285 123.586 13.9793 123.586 15.8438H125.586ZM126.297 11.7005C126.775 10.5789 127.412 9.79144 128.184 9.27385L127.07 7.61287C125.92 8.38434 125.057 9.50701 124.457 10.9167L126.297 11.7005ZM128.184 9.27385C128.966 8.74912 129.876 8.47656 130.949 8.47656V6.47656C129.514 6.47656 128.209 6.84854 127.07 7.61287L128.184 9.27385ZM130.949 8.47656C131.753 8.47656 132.423 8.59676 132.977 8.81257L133.703 6.94915C132.874 6.6259 131.95 6.47656 130.949 6.47656V8.47656ZM132.982 8.81461C133.586 9.04618 134.195 9.38931 134.81 9.85529L136.018 8.2619C135.273 7.69663 134.5 7.2546 133.698 6.94711L132.982 8.81461ZM136.414 9.05859V1.18359H134.414V9.05859H136.414ZM136.414 1.18359C136.414 1.22359 136.403 1.3063 136.349 1.39708C136.296 1.48649 136.232 1.52983 136.208 1.543C136.191 1.55293 136.208 1.53901 136.289 1.52408C136.367 1.50953 136.483 1.49805 136.645 1.49805V-0.501953C136.174 -0.501953 135.662 -0.442139 135.235 -0.204134C135.006 -0.0767078 134.789 0.109457 134.633 0.370251C134.476 0.63242 134.414 0.915081 134.414 1.18359H136.414ZM136.645 1.49805H136.785V-0.501953H136.645V1.49805ZM136.785 1.49805C136.95 1.49805 137.07 1.50961 137.151 1.52454C137.235 1.53986 137.255 1.55452 137.24 1.54591C137.218 1.53421 137.155 1.49213 137.1 1.40245C137.045 1.31082 137.033 1.22615 137.033 1.18359H139.033C139.033 0.912523 138.97 0.627901 138.81 0.36488C138.652 0.103817 138.432 -0.0810871 138.203 -0.207043C137.774 -0.442392 137.26 -0.501953 136.785 -0.501953V1.49805ZM137.033 1.18359V19.377H139.033V1.18359H137.033ZM137.033 19.377C137.033 20.7441 137.096 21.8181 137.248 22.537L139.205 22.1231C139.099 21.6233 139.033 20.7285 139.033 19.377H137.033ZM137.249 22.5409C137.313 22.8378 137.36 23.0622 137.39 23.2172C137.406 23.2953 137.416 23.3498 137.421 23.3844C137.424 23.402 137.425 23.4083 137.425 23.4067C137.425 23.4058 137.424 23.3987 137.423 23.3873C137.422 23.3786 137.42 23.3514 137.42 23.3145H139.42C139.42 23.2011 139.399 23.0835 139.394 23.0556C139.384 22.9935 139.37 22.9176 139.353 22.8317C139.319 22.6585 139.269 22.42 139.204 22.1192L137.249 22.5409ZM137.42 23.3145C137.42 23.2463 137.434 23.1663 137.47 23.0863C137.505 23.0075 137.55 22.9529 137.585 22.9202C137.644 22.8649 137.66 22.8824 137.54 22.9176L138.104 24.8363C138.383 24.7543 138.698 24.6194 138.956 24.3766C139.243 24.1069 139.42 23.7374 139.42 23.3145H137.42ZM137.559 22.9122C137.243 22.9983 136.969 23.0352 136.732 23.0352V25.0352C137.175 25.0352 137.628 24.9665 138.085 24.8417L137.559 22.9122ZM136.732 23.0352C136.781 23.0352 136.854 23.0489 136.927 23.0918C136.994 23.1319 137.019 23.1724 137.015 23.1672L135.324 24.2352C135.621 24.7054 136.108 25.0352 136.732 25.0352V23.0352ZM137.015 23.1672C136.922 23.0187 136.867 22.8895 136.838 22.7787L134.904 23.2877C134.992 23.6222 135.137 23.9383 135.324 24.2352L137.015 23.1672ZM136.852 22.8371C136.804 22.5984 136.721 22.1964 136.604 21.6339L134.646 22.0418C134.763 22.6043 134.844 22.9993 134.891 23.2293L136.852 22.8371ZM134.902 21.1473C133.566 22.5466 132.156 23.1758 130.65 23.1758V25.1758C132.801 25.1758 134.708 24.2464 136.348 22.5285L134.902 21.1473ZM131.195 22.9082C132.072 22.9082 132.942 22.6696 133.793 22.2373L132.887 20.4541C132.262 20.7718 131.701 20.9082 131.195 20.9082V22.9082ZM133.787 22.2401C134.659 21.8044 135.446 21.1923 136.152 20.4213L134.676 19.0709C134.116 19.6827 133.521 20.1371 132.893 20.4513L133.787 22.2401ZM136.414 19.7461V11.1855H134.414V19.7461H136.414ZM136.054 10.4173C134.753 9.33268 133.244 8.7793 131.564 8.7793V10.7793C132.768 10.7793 133.825 11.1634 134.774 11.9538L136.054 10.4173ZM131.539 8.77962C129.885 8.82131 128.517 9.44553 127.591 10.721L129.21 11.8962C129.713 11.2029 130.454 10.8076 131.59 10.779L131.539 8.77962ZM127.587 10.7274C126.712 11.9514 126.346 13.6212 126.346 15.5977H128.346C128.346 13.8241 128.682 12.6345 129.214 11.8898L127.587 10.7274ZM126.346 15.5977C126.346 17.6996 126.684 19.4644 127.471 20.7852L129.189 19.7616C128.664 18.8794 128.346 17.527 128.346 15.5977H126.346ZM127.477 20.796C128.321 22.172 129.593 22.9082 131.195 22.9082V20.9082C130.313 20.9082 129.675 20.5546 129.183 19.7509L127.477 20.796ZM143.676 15.8262L144.312 16.5981L144.317 16.5937L143.676 15.8262ZM147.314 14.2266L147.476 15.2134L147.483 15.2123L147.314 14.2266ZM152.553 13.8047L152.57 14.8045L153.553 14.7877V13.8047H152.553ZM151.744 10.4473L151.071 11.1865L151.079 11.1943L151.088 11.2019L151.744 10.4473ZM146.682 10.0605L146.973 11.0171L146.984 11.0139L146.682 10.0605ZM143.781 10.7285L142.992 11.3425L143.011 11.3669L143.031 11.3901L143.781 10.7285ZM143.342 10.0254L142.431 10.4392L142.439 10.456L142.447 10.4726L143.342 10.0254ZM143.992 8.58398L143.502 7.71237L143.494 7.71688L143.992 8.58398ZM155.365 22.3301L154.383 22.5189L154.385 22.5299L154.388 22.5409L155.365 22.3301ZM154.961 23.877L155.224 24.8417L155.234 24.8391L155.243 24.8363L154.961 23.877ZM153.238 23.5605L152.312 23.9378L152.318 23.9524L152.324 23.9667L153.238 23.5605ZM152.852 22.1895L151.871 22.3856L151.872 22.3929L151.874 22.4003L152.852 22.1895ZM152.781 21.8379L153.762 21.6418L153.371 19.6899L152.039 21.1683L152.781 21.8379ZM150.496 23.543L150.063 22.6414L150.059 22.6437L150.496 23.543ZM152.553 19.7461L153.219 20.4916L153.553 20.1935V19.7461H152.553ZM152.553 16.0547H153.553V15.0471L152.545 15.0547L152.553 16.0547ZM146.119 17.1445L146.649 17.9926L146.659 17.9866L146.119 17.1445ZM145.662 21.2578L144.955 21.9649L144.964 21.9742L144.974 21.9833L145.662 21.2578ZM147.525 23.1758C146.097 23.1758 145.046 22.8261 144.282 22.2163L143.035 23.7798C144.239 24.7403 145.766 25.1758 147.525 25.1758V23.1758ZM144.282 22.2163C143.589 21.664 143.182 20.8193 143.182 19.5H141.182C141.182 21.2745 141.758 22.7617 143.035 23.7798L144.282 22.2163ZM143.182 19.5C143.182 18.0847 143.605 17.1802 144.311 16.5981L143.04 15.0542C141.755 16.1128 141.182 17.6575 141.182 19.5H143.182ZM144.317 16.5937C145.16 15.8892 146.202 15.4223 147.476 15.2134L147.153 13.2397C145.568 13.4996 144.184 14.0991 143.035 15.0587L144.317 16.5937ZM147.483 15.2123C148.859 14.9774 150.551 14.8391 152.57 14.8045L152.536 12.8048C150.453 12.8405 148.653 12.9836 147.146 13.2408L147.483 15.2123ZM153.553 13.8047V12.3281H151.553V13.8047H153.553ZM153.553 12.3281C153.553 11.2858 153.181 10.3715 152.4 9.69266L151.088 11.2019C151.385 11.4605 151.553 11.8002 151.553 12.3281H153.553ZM152.418 9.70807C151.614 8.97543 150.43 8.72656 149.125 8.72656V10.7266C150.257 10.7266 150.82 10.9582 151.071 11.1865L152.418 9.70807ZM149.125 8.72656C148.122 8.72656 147.202 8.84691 146.38 9.1072L146.984 11.0139C147.568 10.8289 148.277 10.7266 149.125 10.7266V8.72656ZM146.39 9.10407C145.648 9.33033 144.946 9.60842 144.283 9.93956L145.178 11.7284C145.734 11.4502 146.332 11.2126 146.973 11.017L146.39 9.10407ZM144.283 9.93956C144.225 9.96855 144.176 9.99245 144.134 10.0117C144.092 10.0313 144.062 10.0445 144.041 10.0529C144.031 10.057 144.025 10.0592 144.023 10.0601C144.02 10.061 144.024 10.0595 144.034 10.0567C144.042 10.0542 144.063 10.0483 144.093 10.0424C144.109 10.0394 144.13 10.0359 144.155 10.033C144.18 10.0301 144.215 10.0273 144.256 10.0273V12.0273C144.419 12.0273 144.553 11.9888 144.603 11.9738C144.673 11.953 144.74 11.928 144.796 11.9051C144.909 11.8589 145.039 11.7977 145.178 11.7284L144.283 9.93956ZM144.256 10.0273C144.427 10.0273 144.535 10.088 144.565 10.1064C144.592 10.1239 144.58 10.1224 144.531 10.0669L143.031 11.3901C143.243 11.6305 143.658 12.0273 144.256 12.0273V10.0273ZM144.571 10.1146C144.45 9.95951 144.338 9.78166 144.236 9.57818L142.447 10.4726C142.603 10.7847 142.784 11.0757 142.992 11.3425L144.571 10.1146ZM144.252 9.61159C144.204 9.50538 144.177 9.4345 144.164 9.39313C144.158 9.37323 144.158 9.36804 144.159 9.37512C144.16 9.38059 144.166 9.41227 144.166 9.46289H142.166C142.166 9.81961 142.316 10.1855 142.431 10.4392L144.252 9.61159ZM144.166 9.46289C144.166 9.68344 144.054 9.77645 144.101 9.72593C144.119 9.70672 144.157 9.67132 144.224 9.62166C144.291 9.57262 144.378 9.51549 144.49 9.45109L143.494 7.71688C143.177 7.89922 142.876 8.10879 142.644 8.35611C142.416 8.59855 142.166 8.97281 142.166 9.46289H144.166ZM144.482 9.45556C144.935 9.20074 145.57 8.96467 146.417 8.76672L145.962 6.81922C145.004 7.04315 144.174 7.33441 143.502 7.71241L144.482 9.45556ZM146.417 8.76672C147.24 8.57427 148.107 8.47656 149.02 8.47656V6.47656C147.963 6.47656 146.943 6.58979 145.962 6.81922L146.417 8.76672ZM149.02 8.47656C150.844 8.47656 152.111 8.87651 152.951 9.54312L154.194 7.97641C152.878 6.93208 151.109 6.47656 149.02 6.47656V8.47656ZM152.951 9.54312C153.758 10.1837 154.189 11.0786 154.189 12.3633H156.189C156.189 10.5542 155.543 9.04675 154.194 7.97641L152.951 9.54312ZM154.189 12.3633V19.377H156.189V12.3633H154.189ZM154.189 19.377C154.189 20.7432 154.247 21.8093 154.383 22.5189L156.347 22.1412C156.249 21.6321 156.189 20.7294 156.189 19.377H154.189ZM154.388 22.5409C154.452 22.8378 154.499 23.0622 154.529 23.2172C154.544 23.2953 154.554 23.3498 154.56 23.3844C154.563 23.402 154.564 23.4083 154.564 23.4067C154.564 23.4058 154.563 23.3987 154.562 23.3873C154.561 23.3786 154.559 23.3514 154.559 23.3145H156.559C156.559 23.2011 156.538 23.0835 156.533 23.0556C156.523 22.9935 156.508 22.9176 156.492 22.8317C156.457 22.6585 156.408 22.42 156.343 22.1192L154.388 22.5409ZM154.559 23.3145C154.559 23.2463 154.573 23.1663 154.608 23.0863C154.644 23.0075 154.689 22.9529 154.724 22.9202C154.783 22.8649 154.799 22.8824 154.679 22.9176L155.243 24.8363C155.522 24.7543 155.837 24.6194 156.095 24.3766C156.381 24.1069 156.559 23.7374 156.559 23.3145H154.559ZM154.698 22.9122C154.382 22.9983 154.108 23.0352 153.871 23.0352V25.0352C154.314 25.0352 154.766 24.9665 155.224 24.8417L154.698 22.9122ZM153.871 23.0352C153.896 23.0352 153.934 23.0388 153.979 23.0535C154.026 23.0684 154.068 23.0908 154.102 23.1165C154.169 23.1669 154.174 23.204 154.152 23.1544L152.324 23.9667C152.443 24.2335 152.624 24.5079 152.902 24.7165C153.192 24.9343 153.529 25.0352 153.871 25.0352V23.0352ZM154.164 23.1833C154.068 22.9471 153.954 22.5563 153.829 21.9786L151.874 22.4003C152.007 23.0179 152.151 23.5412 152.312 23.9378L154.164 23.1833ZM153.832 21.9933L153.762 21.6418L151.801 22.034L151.871 22.3856L153.832 21.9933ZM152.039 21.1683C151.482 21.7851 150.826 22.2752 150.063 22.6414L150.929 24.4445C151.924 23.967 152.791 23.3204 153.524 22.5075L152.039 21.1683ZM150.059 22.6437C149.347 22.9898 148.51 23.1758 147.525 23.1758V25.1758C148.767 25.1758 149.91 24.9399 150.934 24.4422L150.059 22.6437ZM147.666 22.9082C148.816 22.9082 149.861 22.6991 150.761 22.2343L149.844 20.4571C149.292 20.7423 148.578 20.9082 147.666 20.9082V22.9082ZM150.761 22.2343C151.58 21.8119 152.399 21.225 153.219 20.4916L151.886 19.0006C151.16 19.65 150.479 20.1295 149.844 20.4571L150.761 22.2343ZM153.553 19.7461V16.0547H151.553V19.7461H153.553ZM152.545 15.0547C150.979 15.0666 149.668 15.1318 148.621 15.2549L148.855 17.2412C149.801 17.1299 151.033 17.0662 152.56 17.0547L152.545 15.0547ZM148.621 15.2549C147.494 15.3875 146.473 15.7305 145.58 16.3025L146.659 17.9866C147.266 17.5976 147.99 17.3429 148.855 17.2412L148.621 15.2549ZM145.589 16.2965C144.506 16.9738 143.994 18.0525 143.994 19.3418H145.994C145.994 18.6389 146.233 18.2528 146.649 17.9925L145.589 16.2965ZM143.994 19.3418C143.994 20.3508 144.268 21.2777 144.955 21.9649L146.369 20.5507C146.166 20.3473 145.994 19.9969 145.994 19.3418H143.994ZM144.974 21.9833C145.679 22.6527 146.633 22.9082 147.666 22.9082V20.9082C146.941 20.9082 146.559 20.7301 146.35 20.5323L144.974 21.9833ZM159.109 23.4375L158.189 23.8281L158.193 23.8383L159.109 23.4375ZM158.951 22.0488L158.153 21.4468L158.098 21.5198L158.057 21.6016L158.951 22.0488ZM168.109 9.90234L168.908 10.5044L170.116 8.90234H168.109V9.90234ZM159.637 9.69141L158.785 10.2155L158.795 10.231L158.805 10.2461L159.637 9.69141ZM159.637 7.88086L160.469 8.43556L160.479 8.42044L160.488 8.40496L159.637 7.88086ZM171.643 9.60352L172.442 10.2041L172.522 10.098L172.571 9.97491L171.643 9.60352ZM162.52 21.75L161.72 21.1494L160.518 22.75H162.52V21.75ZM171.59 21.9785L170.738 22.5026L170.748 22.5181L170.758 22.5332L171.59 21.9785ZM171.59 23.7715L170.738 23.2474L171.59 23.7715ZM159.549 23C159.769 23 159.928 23.0815 160.012 23.1382C160.091 23.1921 160.128 23.2409 160.13 23.2437C160.133 23.2466 160.094 23.194 160.026 23.0367L158.193 23.8383C158.288 24.056 158.406 24.2847 158.554 24.475C158.667 24.6188 158.995 25 159.549 25V23ZM160.03 23.047C159.9 22.74 159.863 22.5304 159.863 22.4004H157.863C157.863 22.8798 157.991 23.3616 158.189 23.828L160.03 23.047ZM159.863 22.4004C159.863 22.426 159.86 22.4489 159.855 22.4671C159.851 22.485 159.846 22.4948 159.846 22.496L158.057 21.6016C157.937 21.8411 157.863 22.1104 157.863 22.4004H159.863ZM159.75 22.6509L168.908 10.5044L167.311 9.30031L158.153 21.4468L159.75 22.6509ZM168.109 8.90234H160.111V10.9023H168.109V8.90234ZM160.111 8.90234C160.101 8.90234 160.152 8.90035 160.232 8.9358C160.321 8.97561 160.408 9.04538 160.469 9.13671L158.805 10.2461C159.141 10.7506 159.672 10.9023 160.111 10.9023V8.90234ZM160.488 9.16731C160.523 9.22333 160.521 9.24826 160.513 9.20546C160.505 9.16558 160.496 9.09069 160.496 8.9707H158.496C158.496 9.35192 158.543 9.82196 158.785 10.2155L160.488 9.16731ZM160.496 8.9707V8.58398H158.496V8.9707H160.496ZM160.496 8.58398C160.496 8.46329 160.505 8.39201 160.512 8.35822C160.515 8.34263 160.516 8.34297 160.512 8.35503C160.507 8.36702 160.495 8.39665 160.469 8.43556L158.805 7.32616C158.539 7.72501 158.496 8.21426 158.496 8.58398H160.496ZM160.488 8.40496C160.437 8.48859 160.356 8.56388 160.26 8.61047C160.216 8.63144 160.179 8.64199 160.153 8.64721C160.127 8.65232 160.112 8.65234 160.111 8.65234V6.65234C159.639 6.65234 159.107 6.83388 158.785 7.35676L160.488 8.40496ZM160.111 8.65234H171.08V6.65234H160.111V8.65234ZM171.08 8.65234C170.873 8.65234 170.714 8.57825 170.619 8.51264C170.531 8.45239 170.489 8.39505 170.482 8.38553C170.472 8.37134 170.504 8.41519 170.562 8.57417L172.442 7.89068C172.359 7.66294 172.251 7.41674 172.1 7.20919C171.971 7.03263 171.641 6.65234 171.08 6.65234V8.65234ZM170.562 8.57417C170.676 8.88726 170.713 9.1143 170.713 9.26953H172.713C172.713 8.81538 172.609 8.35102 172.442 7.89068L170.562 8.57417ZM170.713 9.26953C170.713 9.22542 170.723 9.21035 170.714 9.23212L172.571 9.97491C172.656 9.76231 172.713 9.52458 172.713 9.26953H170.713ZM170.843 9.00296L161.72 21.1494L163.319 22.3506L172.442 10.2041L170.843 9.00296ZM162.52 22.75H171.115V20.75H162.52V22.75ZM171.115 22.75C171.114 22.75 171.1 22.75 171.074 22.7449C171.048 22.7397 171.011 22.7291 170.967 22.7081C170.87 22.6615 170.79 22.5862 170.738 22.5026L172.441 21.4544C172.12 20.9315 171.587 20.75 171.115 20.75V22.75ZM170.758 22.5332C170.732 22.4943 170.72 22.4647 170.715 22.4527C170.711 22.4406 170.712 22.4403 170.715 22.4559C170.721 22.4897 170.73 22.561 170.73 22.6816H172.73C172.73 22.3119 172.688 21.8227 172.422 21.4238L170.758 22.5332ZM170.73 22.6816V23.0684H172.73V22.6816H170.73ZM170.73 23.0684C170.73 23.1805 170.722 23.2496 170.715 23.2853C170.707 23.3231 170.706 23.2996 170.738 23.2474L172.441 24.2956C172.681 23.906 172.73 23.4462 172.73 23.0684H170.73ZM170.738 23.2474C170.79 23.1638 170.87 23.0885 170.967 23.0419C171.011 23.0209 171.048 23.0103 171.074 23.0051C171.1 23 171.114 23 171.115 23V25C171.587 25 172.12 24.8185 172.441 24.2956L170.738 23.2474ZM171.115 23H159.549V25H171.115V23ZM176.564 22.0664L175.809 22.7218L175.815 22.7284L176.564 22.0664ZM176.6 9.67383L177.357 10.3271L177.359 10.3241L176.6 9.67383ZM187.234 9.65625L186.468 10.2989L186.471 10.3019L187.234 9.65625ZM187.252 22.0664L186.493 21.4151L186.49 21.4188L187.252 22.0664ZM185.248 20.4492L186.053 21.0431L186.056 21.0385L185.248 20.4492ZM178.533 11.2207L179.342 11.8083L179.346 11.8037L178.533 11.2207ZM178.516 20.4492L177.702 21.0305L177.706 21.0368L178.516 20.4492ZM181.961 23.1758C179.813 23.1758 178.32 22.543 177.314 21.4044L175.815 22.7284C177.294 24.4023 179.398 25.1758 181.961 25.1758V23.1758ZM177.32 21.411C176.304 20.2401 175.719 18.4543 175.719 15.8965H173.719C173.719 18.7293 174.364 21.0567 175.809 22.7218L177.32 21.411ZM175.719 15.8965C175.719 13.3448 176.313 11.5371 177.357 10.3271L175.843 9.02053C174.379 10.7168 173.719 13.0575 173.719 15.8965H175.719ZM177.359 10.3241C178.385 9.12637 179.868 8.47656 181.961 8.47656V6.47656C179.414 6.47656 177.322 7.2916 175.84 9.02354L177.359 10.3241ZM181.961 8.47656C184.031 8.47656 185.479 9.12003 186.468 10.2989L188.001 9.01364C186.552 7.28622 184.485 6.47656 181.961 6.47656V8.47656ZM186.471 10.3019C187.482 11.4978 188.062 13.3121 188.062 15.8965H190.062C190.062 13.0434 189.424 10.6975 187.998 9.01059L186.471 10.3019ZM188.062 15.8965C188.062 18.4721 187.486 20.2578 186.493 21.4151L188.011 22.7177C189.431 21.0625 190.062 18.7349 190.062 15.8965H188.062ZM186.49 21.4188C185.533 22.5448 184.083 23.1758 181.961 23.1758V25.1758C184.503 25.1758 186.58 24.4005 188.014 22.7141L186.49 21.4188ZM181.873 22.9258C183.627 22.9258 185.091 22.3454 186.053 21.0431L184.443 19.8554C183.952 20.5218 183.166 20.9258 181.873 20.9258V22.9258ZM186.056 21.0385C186.967 19.7896 187.338 17.9992 187.338 15.8438H185.338C185.338 17.8368 184.982 19.1167 184.44 19.8599L186.056 21.0385ZM187.338 15.8438C187.338 13.6781 186.967 11.8811 186.056 10.6314L184.44 11.81C184.982 12.5525 185.338 13.8375 185.338 15.8438H187.338ZM186.056 10.6314C185.096 9.31598 183.632 8.72656 181.873 8.72656V10.7266C183.161 10.7266 183.946 11.1332 184.44 11.81L186.056 10.6314ZM181.873 8.72656C180.123 8.72656 178.668 9.31811 177.721 10.6377L179.346 11.8037C179.828 11.1311 180.599 10.7266 181.873 10.7266V8.72656ZM177.724 10.6331C176.824 11.8729 176.461 13.6716 176.461 15.8438H178.461C178.461 13.8206 178.813 12.5372 179.342 11.8083L177.724 10.6331ZM176.461 15.8438C176.461 18.0035 176.818 19.7926 177.702 21.0305L179.329 19.868C178.807 19.1371 178.461 17.8559 178.461 15.8438H176.461ZM177.706 21.0368C178.657 22.3454 180.119 22.9258 181.873 22.9258V20.9258C180.58 20.9258 179.804 20.5218 179.325 19.8616L177.706 21.0368ZM192.684 23.8945L192.177 24.7565L192.196 24.7678L192.216 24.7783L192.684 23.8945ZM195.109 23.8945L195.577 24.7783L195.597 24.7678L195.616 24.7565L195.109 23.8945ZM193.633 23.0527C193.453 23.0527 193.323 23.0416 193.235 23.0268C193.141 23.0113 193.125 22.9969 193.151 23.0107L192.216 24.7783C192.639 25.0025 193.161 25.0527 193.633 25.0527V23.0527ZM193.191 23.0326C193.22 23.05 193.281 23.0961 193.329 23.1818C193.378 23.2668 193.385 23.3395 193.385 23.3672H191.385C191.385 23.9498 191.667 24.4565 192.177 24.7565L193.191 23.0326ZM193.385 23.3672V21.3105H191.385V23.3672H193.385ZM193.385 21.3105C193.385 21.3531 193.373 21.4378 193.318 21.5294C193.263 21.6191 193.2 21.6612 193.178 21.6729C193.163 21.6815 193.183 21.6668 193.267 21.6515C193.348 21.6366 193.468 21.625 193.633 21.625V19.625C193.158 19.625 192.644 19.6846 192.215 19.9199C191.986 20.0459 191.766 20.2308 191.608 20.4918C191.448 20.7549 191.385 21.0395 191.385 21.3105H193.385ZM193.633 21.625H194.16V19.625H193.633V21.625ZM194.16 21.625C194.325 21.625 194.445 21.6366 194.526 21.6515C194.61 21.6668 194.63 21.6815 194.615 21.6729C194.593 21.6612 194.53 21.6191 194.475 21.5294C194.42 21.4378 194.408 21.3531 194.408 21.3105H196.408C196.408 21.0395 196.345 20.7549 196.185 20.4918C196.027 20.2308 195.807 20.0459 195.578 19.9199C195.149 19.6846 194.635 19.625 194.16 19.625V21.625ZM194.408 21.3105V23.3672H196.408V21.3105H194.408ZM194.408 23.3672C194.408 23.3395 194.415 23.2668 194.463 23.1818C194.512 23.0961 194.573 23.05 194.602 23.0326L195.616 24.7565C196.126 24.4565 196.408 23.9498 196.408 23.3672H194.408ZM194.641 23.0107C194.668 22.9969 194.651 23.0113 194.558 23.0268C194.469 23.0416 194.34 23.0527 194.16 23.0527V25.0527C194.632 25.0527 195.154 25.0025 195.577 24.7783L194.641 23.0107ZM194.16 23.0527H193.633V25.0527H194.16V23.0527ZM200.523 22.1895L199.797 22.8772L199.804 22.8837L200.523 22.1895ZM208.311 7.6875L208.121 8.66928L208.128 8.67076L208.136 8.67212L208.311 7.6875ZM210.561 9.56836L209.643 9.16963L209.636 9.18666L209.629 9.20396L210.561 9.56836ZM210.156 10.2891L209.367 9.6751L209.362 9.68161L210.156 10.2891ZM209.576 10.5527L209.129 11.4472L209.193 11.4789L209.26 11.5014L209.576 10.5527ZM209.383 10.4648L208.96 11.371L208.985 11.3829L209.011 11.3933L209.383 10.4648ZM202.633 11.1504L203.399 11.7925L203.403 11.7878L202.633 11.1504ZM201.93 19.2715L200.985 19.5986L200.986 19.6024L201.93 19.2715ZM203.459 21.2754L202.934 22.1266L202.94 22.1304L203.459 21.2754ZM209.822 21.1172L209.605 20.141L209.479 20.1692L209.363 20.2288L209.822 21.1172ZM210.051 21.0469L210.498 21.9413L210.532 21.9241L210.565 21.9044L210.051 21.0469ZM211.035 21.9785L210.125 22.3923L210.132 22.4092L210.141 22.4257L211.035 21.9785ZM208.75 23.9473L208.949 24.9273L208.961 24.9248L208.75 23.9473ZM206.324 23.1758C203.893 23.1758 202.266 22.5556 201.243 21.4952L199.804 22.8837C201.336 24.4718 203.576 25.1758 206.324 25.1758V23.1758ZM201.249 21.5017C200.24 20.4364 199.625 18.6007 199.625 15.7559H197.625C197.625 18.8173 198.275 21.2706 199.797 22.8772L201.249 21.5017ZM199.625 15.7559C199.625 12.8916 200.309 11.1112 201.418 10.121L200.086 8.62895C198.359 10.17 197.625 12.6436 197.625 15.7559H199.625ZM201.418 10.121C202.632 9.03735 204.15 8.47656 206.043 8.47656V6.47656C203.717 6.47656 201.708 7.1814 200.086 8.62895L201.418 10.121ZM206.043 8.47656C206.768 8.47656 207.46 8.54148 208.121 8.66928L208.501 6.70572C207.708 6.55227 206.888 6.47656 206.043 6.47656V8.47656ZM208.136 8.67212C208.809 8.7915 209.292 8.94495 209.621 9.10927L210.516 7.32042C209.954 7.03943 209.266 6.84131 208.485 6.70288L208.136 8.67212ZM209.621 9.10927C209.701 9.14903 209.757 9.18294 209.796 9.20934C209.835 9.23619 209.847 9.24967 209.844 9.24637C209.841 9.24286 209.814 9.2138 209.787 9.15606C209.759 9.09452 209.736 9.01247 209.736 8.91797H211.736C211.736 8.46624 211.525 8.11184 211.294 7.86887C211.072 7.63482 210.792 7.45869 210.516 7.32042L209.621 9.10927ZM209.736 8.91797C209.736 8.88625 209.741 8.89045 209.727 8.94271C209.714 8.99226 209.688 9.06676 209.643 9.16963L211.478 9.96708C211.613 9.65567 211.736 9.28803 211.736 8.91797H209.736ZM209.629 9.20396C209.556 9.39132 209.467 9.54614 209.367 9.67512L210.946 10.903C211.173 10.6101 211.354 10.2845 211.492 9.93276L209.629 9.20396ZM209.362 9.68161C209.322 9.73417 209.318 9.72551 209.359 9.69716C209.401 9.66701 209.532 9.58789 209.734 9.58789V11.5879C210.371 11.5879 210.773 11.1285 210.951 10.8965L209.362 9.68161ZM209.734 9.58789C209.779 9.58789 209.815 9.59152 209.837 9.59447C209.86 9.59751 209.876 9.6009 209.885 9.60291C209.902 9.60667 209.906 9.60859 209.892 9.60405L209.26 11.5014C209.345 11.5298 209.528 11.5879 209.734 11.5879V9.58789ZM210.023 9.65831C209.934 9.61362 209.844 9.57223 209.754 9.53637L209.011 11.3933C209.039 11.4043 209.078 11.4215 209.129 11.4472L210.023 9.65831ZM209.806 9.55866C208.612 9.00176 207.33 8.72656 205.973 8.72656V10.7266C207.052 10.7266 208.044 10.9436 208.96 11.371L209.806 9.55866ZM205.973 8.72656C204.29 8.72656 202.871 9.29391 201.862 10.513L203.403 11.7878C203.965 11.1084 204.773 10.7266 205.973 10.7266V8.72656ZM201.866 10.5083C200.855 11.7151 200.455 13.5161 200.455 15.6855H202.455C202.455 13.6831 202.84 12.4607 203.399 11.7925L201.866 10.5083ZM200.455 15.6855C200.455 17.2212 200.618 18.5392 200.985 19.5986L202.875 18.9444C202.609 18.1756 202.455 17.1031 202.455 15.6855H200.455ZM200.986 19.6024C201.366 20.6852 202.006 21.5542 202.934 22.1266L203.984 20.4242C203.506 20.1294 203.126 19.6624 202.873 18.9406L200.986 19.6024ZM202.94 22.1304C203.864 22.6904 205.012 22.9258 206.307 22.9258V20.9258C205.234 20.9258 204.484 20.7276 203.978 20.4204L202.94 22.1304ZM206.307 22.9258C207.75 22.9258 209.082 22.6256 210.281 22.0055L209.363 20.2288C208.477 20.6869 207.465 20.9258 206.307 20.9258V22.9258ZM210.039 22.0934C210.159 22.0668 210.336 22.0225 210.498 21.9413L209.604 20.1524C209.616 20.1461 209.627 20.1413 209.635 20.1378C209.643 20.1343 209.65 20.1317 209.654 20.13C209.663 20.1266 209.667 20.1255 209.664 20.1263C209.662 20.1269 209.656 20.1287 209.646 20.1313C209.636 20.134 209.622 20.1372 209.605 20.141L210.039 22.0934ZM210.565 21.9044C210.574 21.8992 210.556 21.9107 210.519 21.9265C210.5 21.9347 210.465 21.949 210.416 21.9622C210.372 21.9744 210.286 21.9941 210.174 21.9941V19.9941C209.953 19.9941 209.784 20.0655 209.732 20.0882C209.654 20.1215 209.586 20.1594 209.536 20.1894L210.565 21.9044ZM210.174 21.9941C209.975 21.9941 209.85 21.9177 209.818 21.8958C209.786 21.8738 209.795 21.8722 209.841 21.9287L211.385 20.6573C211.201 20.4338 210.793 19.9941 210.174 19.9941V21.9941ZM209.841 21.9287C209.945 22.0541 210.04 22.2065 210.125 22.3923L211.946 21.5647C211.796 21.2349 211.61 20.9303 211.385 20.6573L209.841 21.9287ZM210.141 22.4257C210.189 22.5221 210.214 22.5873 210.226 22.6255C210.239 22.6675 210.229 22.6516 210.229 22.5938H212.229C212.229 22.202 212.077 21.8253 211.93 21.5313L210.141 22.4257ZM210.229 22.5938C210.229 22.4998 210.251 22.4214 210.276 22.3662C210.299 22.3144 210.321 22.2905 210.32 22.292C210.319 22.2935 210.302 22.3112 210.26 22.3424C210.218 22.3732 210.158 22.4118 210.077 22.4568L211.044 24.2073C211.318 24.0562 211.589 23.8702 211.803 23.6338C212.022 23.3919 212.229 23.0403 212.229 22.5938H210.229ZM210.077 22.4568C209.75 22.6376 209.251 22.8165 208.539 22.9697L208.961 24.9248C209.773 24.7499 210.481 24.5187 211.044 24.2073L210.077 22.4568ZM208.551 22.9673C207.874 23.1047 207.133 23.1758 206.324 23.1758V25.1758C207.25 25.1758 208.126 25.0945 208.949 24.9273L208.551 22.9673ZM215.729 22.0664L214.973 22.7218L214.979 22.7284L215.729 22.0664ZM215.764 9.67383L216.521 10.3271L216.523 10.3241L215.764 9.67383ZM226.398 9.65625L225.632 10.2989L225.635 10.3019L226.398 9.65625ZM226.416 22.0664L225.657 21.4151L225.654 21.4188L226.416 22.0664ZM224.412 20.4492L225.217 21.0431L225.22 21.0385L224.412 20.4492ZM217.697 11.2207L218.506 11.8083L218.51 11.8037L217.697 11.2207ZM217.68 20.4492L216.866 21.0305L216.871 21.0368L217.68 20.4492ZM221.125 23.1758C218.977 23.1758 217.484 22.543 216.478 21.4044L214.979 22.7284C216.458 24.4023 218.562 25.1758 221.125 25.1758V23.1758ZM216.484 21.411C215.468 20.2401 214.883 18.4543 214.883 15.8965H212.883C212.883 18.7293 213.528 21.0567 214.973 22.7218L216.484 21.411ZM214.883 15.8965C214.883 13.3448 215.477 11.5371 216.521 10.3271L215.007 9.02053C213.543 10.7168 212.883 13.0575 212.883 15.8965H214.883ZM216.523 10.3241C217.549 9.12637 219.032 8.47656 221.125 8.47656V6.47656C218.578 6.47656 216.487 7.2916 215.004 9.02354L216.523 10.3241ZM221.125 8.47656C223.195 8.47656 224.644 9.12003 225.632 10.2989L227.165 9.01364C225.716 7.28622 223.649 6.47656 221.125 6.47656V8.47656ZM225.635 10.3019C226.646 11.4978 227.227 13.3121 227.227 15.8965H229.227C229.227 13.0434 228.588 10.6975 227.162 9.01059L225.635 10.3019ZM227.227 15.8965C227.227 18.4721 226.651 20.2578 225.657 21.4151L227.175 22.7177C228.596 21.0625 229.227 18.7349 229.227 15.8965H227.227ZM225.654 21.4188C224.697 22.5448 223.247 23.1758 221.125 23.1758V25.1758C223.667 25.1758 225.744 24.4005 227.178 22.7141L225.654 21.4188ZM221.037 22.9258C222.791 22.9258 224.255 22.3454 225.217 21.0431L223.608 19.8554C223.116 20.5218 222.33 20.9258 221.037 20.9258V22.9258ZM225.22 21.0385C226.131 19.7896 226.502 17.9992 226.502 15.8438H224.502C224.502 17.8368 224.146 19.1167 223.604 19.8599L225.22 21.0385ZM226.502 15.8438C226.502 13.6781 226.132 11.8811 225.22 10.6314L223.604 11.81C224.146 12.5525 224.502 13.8375 224.502 15.8438H226.502ZM225.22 10.6314C224.261 9.31598 222.796 8.72656 221.037 8.72656V10.7266C222.325 10.7266 223.111 11.1332 223.604 11.81L225.22 10.6314ZM221.037 8.72656C219.288 8.72656 217.832 9.31811 216.885 10.6377L218.51 11.8037C218.992 11.1311 219.763 10.7266 221.037 10.7266V8.72656ZM216.888 10.6331C215.988 11.8729 215.625 13.6716 215.625 15.8438H217.625C217.625 13.8206 217.977 12.5372 218.506 11.8083L216.888 10.6331ZM215.625 15.8438C215.625 18.0035 215.982 19.7926 216.866 21.0305L218.493 19.868C217.971 19.1371 217.625 17.8559 217.625 15.8438H215.625ZM216.871 21.0368C217.821 22.3454 219.284 22.9258 221.037 22.9258V20.9258C219.744 20.9258 218.968 20.5218 218.489 19.8616L216.871 21.0368ZM253.803 23.8945L254.271 24.7783L254.29 24.7678L254.31 24.7565L253.803 23.8945ZM251.781 23.8945L251.274 24.7565L251.294 24.7678L251.313 24.7783L251.781 23.8945ZM250.709 10.5527L249.978 11.2357L249.986 11.244L250.709 10.5527ZM246.244 10.4648L246.825 11.2786L246.828 11.2766L246.244 10.4648ZM244.645 11.9414L243.862 11.3189L243.615 11.6292L243.648 12.0245L244.645 11.9414ZM241.27 10.5527L240.539 11.2357L240.547 11.244L241.27 10.5527ZM237.174 10.2363L237.664 11.1079L237.671 11.1041L237.678 11.1001L237.174 10.2363ZM235.768 11.2734L235.06 10.5663L235.055 10.5719L235.049 10.5776L235.768 11.2734ZM234.924 23.8945L235.414 24.7661L235.423 24.7614L235.431 24.7565L234.924 23.8945ZM232.902 23.8945L232.372 24.7425L232.403 24.7615L232.434 24.7783L232.902 23.8945ZM232.428 9.46289L231.449 9.66985L231.45 9.67373L232.428 9.46289ZM232.814 7.91602L233.078 8.88078L233.087 8.87817L233.097 8.87538L232.814 7.91602ZM234.871 9.18164L233.887 9.35743L233.89 9.37436L233.893 9.39117L234.871 9.18164ZM235.012 9.81445L234.042 10.057L234.51 11.9318L235.77 10.4663L235.012 9.81445ZM242.412 8.05664L241.986 8.96123L241.996 8.96612L242.412 8.05664ZM244.223 10.0605L243.295 10.4339L243.914 11.973L244.986 10.7065L244.223 10.0605ZM249.197 8.47656C250.295 8.47656 251.224 8.78322 252.025 9.38398L253.225 7.78399C252.057 6.90818 250.701 6.47656 249.197 6.47656V8.47656ZM252.025 9.38398C252.646 9.84961 253.102 10.7771 253.102 12.5215H255.102C255.102 10.4924 254.573 8.79492 253.225 7.78399L252.025 9.38398ZM253.102 12.5215V23.3672H255.102V12.5215H253.102ZM253.102 23.3672C253.102 23.3395 253.109 23.2668 253.157 23.1818C253.205 23.0961 253.266 23.05 253.296 23.0326L254.31 24.7565C254.82 24.4565 255.102 23.9498 255.102 23.3672H253.102ZM253.335 23.0107C253.361 22.9969 253.345 23.0113 253.252 23.0268C253.163 23.0416 253.033 23.0527 252.854 23.0527V25.0527C253.326 25.0527 253.847 25.0025 254.271 24.7783L253.335 23.0107ZM252.854 23.0527H252.748V25.0527H252.854V23.0527ZM252.748 23.0527C252.561 23.0527 252.426 23.0414 252.334 23.0263C252.236 23.0103 252.22 22.9955 252.249 23.0107L251.313 24.7783C251.739 25.0037 252.269 25.0527 252.748 25.0527V23.0527ZM252.288 23.0326C252.318 23.05 252.379 23.0961 252.427 23.1818C252.475 23.2668 252.482 23.3395 252.482 23.3672H250.482C250.482 23.9498 250.764 24.4565 251.274 24.7565L252.288 23.0326ZM252.482 23.3672V12.7852H250.482V23.3672H252.482ZM252.482 12.7852C252.482 11.6516 252.17 10.6336 251.432 9.86151L249.986 11.244C250.279 11.55 250.482 12.0203 250.482 12.7852H252.482ZM251.44 9.86985C250.689 9.06737 249.641 8.74414 248.477 8.74414V10.7441C249.281 10.7441 249.721 10.96 249.978 11.2356L251.44 9.86985ZM248.477 8.74414C247.446 8.74414 246.498 9.05061 245.66 9.65304L246.828 11.2766C247.326 10.9181 247.866 10.7441 248.477 10.7441V8.74414ZM245.663 9.65111C244.947 10.1623 244.341 10.7163 243.862 11.3189L245.427 12.5639C245.768 12.1352 246.229 11.7049 246.825 11.2786L245.663 9.65111ZM243.648 12.0245C243.671 12.2997 243.68 12.4768 243.68 12.5742H245.68C245.68 12.3904 245.665 12.1456 245.641 11.8584L243.648 12.0245ZM243.68 12.5742V23.3672H245.68V12.5742H243.68ZM243.68 23.3672C243.68 23.3221 243.692 23.2355 243.749 23.143C243.804 23.0531 243.868 23.0123 243.887 23.0021C243.901 22.9947 243.877 23.0101 243.79 23.0258C243.705 23.0411 243.583 23.0527 243.414 23.0527V25.0527C243.894 25.0527 244.41 24.9934 244.84 24.7606C245.069 24.6361 245.291 24.4525 245.452 24.1912C245.615 23.9274 245.68 23.6408 245.68 23.3672H243.68ZM243.414 23.0527H243.291V25.0527H243.414V23.0527ZM243.291 23.0527C243.126 23.0527 243.007 23.0412 242.925 23.0262C242.841 23.0109 242.821 22.9963 242.836 23.0049C242.858 23.0166 242.921 23.0587 242.976 23.1483C243.031 23.24 243.043 23.3246 243.043 23.3672H241.043C241.043 23.6383 241.106 23.9229 241.266 24.1859C241.424 24.447 241.644 24.6319 241.874 24.7578C242.302 24.9932 242.816 25.0527 243.291 25.0527V23.0527ZM243.043 23.3672V12.7852H241.043V23.3672H243.043ZM243.043 12.7852C243.043 11.6516 242.731 10.6336 241.992 9.86151L240.547 11.244C240.84 11.55 241.043 12.0203 241.043 12.7852H243.043ZM242 9.86985C241.25 9.06737 240.202 8.74414 239.037 8.74414V10.7441C239.841 10.7441 240.281 10.96 240.539 11.2356L242 9.86985ZM239.037 8.74414C238.188 8.74414 237.392 8.95123 236.67 9.37255L237.678 11.1001C238.08 10.8652 238.526 10.7441 239.037 10.7441V8.74414ZM236.684 9.36475C236.058 9.71654 235.512 10.1147 235.06 10.5663L236.475 11.9805C236.773 11.6822 237.164 11.3889 237.664 11.1079L236.684 9.36475ZM235.049 10.5776C234.864 10.7693 234.711 10.9324 234.601 11.0604C234.548 11.1222 234.49 11.193 234.439 11.2644C234.415 11.2987 234.378 11.3539 234.343 11.422C234.328 11.4507 234.223 11.6432 234.223 11.9062H236.223C236.223 11.9837 236.213 12.0486 236.204 12.0963C236.194 12.1446 236.183 12.1848 236.172 12.2149C236.153 12.2731 236.132 12.3165 236.12 12.34C236.096 12.3861 236.076 12.4142 236.074 12.4163C236.069 12.4232 236.079 12.4091 236.117 12.3654C236.188 12.2824 236.308 12.1526 236.486 11.9692L235.049 10.5776ZM234.223 11.9062V23.3672H236.223V11.9062H234.223ZM234.223 23.3672C234.223 23.3395 234.23 23.2668 234.278 23.1818C234.326 23.0961 234.387 23.05 234.417 23.0326L235.431 24.7565C235.941 24.4565 236.223 23.9498 236.223 23.3672H234.223ZM234.434 23.023C234.475 22.9996 234.473 23.0121 234.383 23.0273C234.299 23.0415 234.172 23.0527 233.992 23.0527V25.0527C234.456 25.0527 234.989 25.0052 235.414 24.7661L234.434 23.023ZM233.992 23.0527H233.852V25.0527H233.992V23.0527ZM233.852 23.0527C233.672 23.0527 233.542 23.0416 233.453 23.0268C233.36 23.0113 233.344 22.9969 233.37 23.0107L232.434 24.7783C232.858 25.0025 233.379 25.0527 233.852 25.0527V23.0527ZM233.432 23.0465C233.47 23.0703 233.529 23.1211 233.574 23.2042C233.617 23.2847 233.621 23.3492 233.621 23.3672H231.621C231.621 23.9214 231.872 24.4298 232.372 24.7425L233.432 23.0465ZM233.621 23.3672V12.3984H231.621V23.3672H233.621ZM233.621 12.3984C233.621 11.0327 233.558 9.96194 233.405 9.25205L231.45 9.67373C231.555 10.1592 231.621 11.0454 231.621 12.3984H233.621ZM233.406 9.25593C233.342 8.95314 233.295 8.72412 233.265 8.56589C233.249 8.48611 233.239 8.43022 233.233 8.39451C233.23 8.37633 233.229 8.36939 233.229 8.37038C233.23 8.37099 233.23 8.37779 233.231 8.38886C233.232 8.39709 233.234 8.42411 233.234 8.46094H231.234C231.234 8.57307 231.255 8.69046 231.26 8.71853C231.27 8.78096 231.284 8.85764 231.301 8.94486C231.335 9.12061 231.385 9.36326 231.449 9.66985L233.406 9.25593ZM233.234 8.46094C233.234 8.52475 233.222 8.60342 233.186 8.6846C233.151 8.76514 233.103 8.82324 233.064 8.8602C232.996 8.92403 232.968 8.91066 233.078 8.88078L232.551 6.95125C232.274 7.02684 231.956 7.15702 231.695 7.4025C231.403 7.67613 231.234 8.04705 231.234 8.46094H233.234ZM233.097 8.87538C233.423 8.7794 233.696 8.74023 233.922 8.74023V6.74023C233.468 6.74023 233.003 6.81825 232.532 6.95665L233.097 8.87538ZM233.922 8.74023C233.904 8.74023 233.872 8.73773 233.831 8.72496C233.789 8.71192 233.749 8.69164 233.715 8.66668C233.646 8.61681 233.639 8.57738 233.658 8.62098L235.486 7.8087C235.365 7.5359 235.179 7.25916 234.894 7.0511C234.598 6.83554 234.26 6.74023 233.922 6.74023V8.74023ZM233.658 8.62098C233.768 8.86659 233.843 9.11168 233.887 9.35743L235.856 9.00585C235.782 8.59535 235.658 8.19591 235.486 7.8087L233.658 8.62098ZM233.893 9.39117C233.963 9.71475 234.013 9.94351 234.042 10.057L235.982 9.57192C235.963 9.49789 235.92 9.30478 235.849 8.97211L233.893 9.39117ZM235.77 10.4663C236.258 9.89849 236.862 9.41744 237.593 9.0262L236.649 7.26287C235.716 7.76225 234.914 8.39448 234.253 9.16257L235.77 10.4663ZM237.593 9.0262C238.283 8.657 239 8.47656 239.758 8.47656V6.47656C238.664 6.47656 237.623 6.74143 236.649 7.26287L237.593 9.0262ZM239.758 8.47656C240.567 8.47656 241.305 8.64026 241.986 8.96117L242.839 7.15211C241.879 6.69958 240.847 6.47656 239.758 6.47656V8.47656ZM241.996 8.96612C242.549 9.21871 242.989 9.67268 243.295 10.4339L245.15 9.68721C244.683 8.52654 243.916 7.64457 242.828 7.14717L241.996 8.96612ZM244.986 10.7065C245.553 10.0367 246.214 9.49332 246.975 9.07198L246.006 7.32255C245.032 7.86214 244.182 8.56098 243.459 9.4146L244.986 10.7065ZM246.975 9.07198C247.703 8.6688 248.439 8.47656 249.197 8.47656V6.47656C248.08 6.47656 247.012 6.7648 246.006 7.32255L246.975 9.07198Z" fill="black"/>
</g>
<defs>
<filter id="filter0_d_3_87" x="0.632812" y="0.498047" width="257.469" height="38.1289" filterUnits="userSpaceOnUse" color-interpolation-filters="sRGB">
<feFlood flood-opacity="0" result="BackgroundImageFix"/>
<feColorMatrix in="SourceAlpha" type="matrix" values="0 0 0 0 0 0 0 0 0 0 0 0 0 0 0 0 0 0 127 0" result="hardAlpha"/>
<feOffset dy="4"/>
<feGaussianBlur stdDeviation="2"/>
<feComposite in2="hardAlpha" operator="out"/>
<feColorMatrix type="matrix" values="0 0 0 0 0 0 0 0 0 0 0 0 0 0 0 0 0 0 0.25 0"/>
<feBlend mode="normal" in2="BackgroundImageFix" result="effect1_dropShadow_3_87"/>
<feBlend mode="normal" in="SourceGraphic" in2="effect1_dropShadow_3_87" result="shape"/>
</filter>
</defs>
</svg>
